<svg width="1920" height="550" viewBox="0 0 1920 550" fill="none" xmlns="http://www.w3.org/2000/svg">
<g clip-path="url(#clip0)">
<path d="M1090 -58.9L1239.8 27.5V200.5L1090 286.9L940.2 200.5V27.5L1090 -58.9Z" stroke="#F8F8F8" stroke-width="2"/>
<path d="M923 384L1001.8 429.5V520.5L923 566L844.2 520.5V429.5L923 384Z" stroke="#F8F8F8" stroke-width="2"/>
<path d="M106 -50L188.3 -2.5V92.5L106 140L23.7 92.5V-2.5L106 -50Z" stroke="#F8F8F8" stroke-width="2"/>
<path d="M468 363L605.7 442.5V601.5L468 681L330.3 601.5V442.5L468 363Z" stroke="#F8F8F8" stroke-width="2"/>
<path d="M58 362L138.5 408.5V501.5L58 548L-22.5 501.5V408.5L58 362Z" stroke="#F8F8F8" stroke-width="2"/>
<path d="M1814 370L1929.2 436.5V569.5L1814 636L1698.8 569.5V436.5L1814 370Z" stroke="#F8F8F8" stroke-width="2"/>
<path d="M1484 90L1568 138.5V235.5L1484 284L1400 235.5V138.5L1484 90Z" stroke="#F8F8F8" stroke-width="2"/>
<path d="M1277 390L1372.3 445V555L1277 610L1181.7 555V445L1277 390Z" stroke="#F8F8F8" stroke-width="2"/>
<path d="M704 50L810.5 111.5V234.5L704 296L597.5 234.5V111.5L704 50Z" stroke="#F8F8F8" stroke-width="2"/>
<path d="M1823 -8L1909.6 42V142L1823 192L1736.4 142V42L1823 -8Z" stroke="#F8F8F8" stroke-width="2"/>
</g>
<defs>
<clipPath id="clip0">
<rect width="1920" height="550" fill="white"/>
</clipPath>
</defs>
</svg>
