<svg id="Capa_1" enable-background="new 0 0 512 512" height="512" viewBox="0 0 512 512" width="512" xmlns="http://www.w3.org/2000/svg"><g><path d="m348.158 201.505h-229.536c-8.334 0-15.113 6.78-15.113 15.113v45.799c-50.672.196-91.837 41.477-91.837 92.195 0 17.073 4.724 33.76 13.661 48.256 2.173 3.527 6.794 4.623 10.319 2.448 3.526-2.173 4.622-6.794 2.448-10.319-7.477-12.129-11.429-26.093-11.429-40.385 0-42.445 34.436-77 76.836-77.198v16.405c-33.356.195-60.431 27.392-60.431 60.793s27.074 60.598 60.431 60.793v16.405c-15.686-.072-30.763-4.837-43.626-13.791-3.404-2.368-8.076-1.529-10.44 1.87-2.366 3.4-1.529 8.074 1.87 10.44 15.391 10.713 33.433 16.402 52.197 16.475v27.242c0 20.928 17.025 37.954 37.953 37.954h183.856c20.928 0 37.953-17.026 37.953-37.954v-257.428c.001-8.333-6.779-15.113-15.112-15.113zm-290.081 153.106c0-25.129 20.348-45.588 45.432-45.785v91.569c-25.084-.195-45.432-20.654-45.432-45.784zm290.194 119.435c0 12.657-10.297 22.954-22.953 22.954h-183.856c-12.656 0-22.953-10.297-22.953-22.954v-257.428c0-.063.051-.113.113-.113h229.536c.063 0 .113.051.113.113z"/><path d="m189.249 171.232c0 4.143 3.357 7.5 7.5 7.5s7.5-3.357 7.5-7.5c0-14.585 15.984-15.929 15.984-37.595 0-21.67-15.984-23.011-15.984-37.6 0-14.585 15.984-15.932 15.984-37.6 0-4.143-3.357-7.5-7.5-7.5s-7.5 3.357-7.5 7.5c0 14.585-15.984 15.932-15.984 37.6 0 21.67 15.984 23.011 15.984 37.6 0 14.614-15.984 15.909-15.984 37.595z"/><path d="m251.115 171.232c0 4.143 3.357 7.5 7.5 7.5s7.5-3.357 7.5-7.5c0-14.585 15.984-15.929 15.984-37.595 0-21.67-15.984-23.011-15.984-37.6 0-14.585 15.984-15.932 15.984-37.6 0-4.143-3.357-7.5-7.5-7.5s-7.5 3.357-7.5 7.5c0 14.585-15.984 15.932-15.984 37.6 0 21.67 15.984 23.011 15.984 37.6.001 14.614-15.984 15.909-15.984 37.595z"/><path d="m492.828 50.938c4.143 0 7.5-3.357 7.5-7.5v-15.958c0-15.152-12.328-27.48-27.48-27.48h-111.926c-15.152 0-27.479 12.328-27.479 27.48v111.926c0 15.152 12.327 27.48 27.479 27.48h6.186l-4.542 18.875c-2.906 12.038 10.244 21.325 20.604 14.899l54.466-33.774h35.212c15.152 0 27.48-12.328 27.48-27.48v-60.968c0-4.143-3.357-7.5-7.5-7.5s-7.5 3.357-7.5 7.5v60.968c0 6.882-5.599 12.48-12.48 12.48h-37.349c-1.396 0-2.766.39-3.952 1.126l-53.684 33.289 6.056-25.16c1.136-4.727-2.456-9.255-7.292-9.255h-15.705c-6.881 0-12.479-5.599-12.479-12.48v-111.926c0-6.882 5.599-12.48 12.479-12.48h111.926c6.882 0 12.48 5.599 12.48 12.48v15.958c0 4.143 3.358 7.5 7.5 7.5z"/><path d="m416.887 25.493c-31.954 0-57.95 25.996-57.95 57.95s25.996 57.95 57.95 57.95 57.95-25.996 57.95-57.95-25.996-57.95-57.95-57.95zm0 100.901c-23.683 0-42.95-19.268-42.95-42.95s19.268-42.95 42.95-42.95 42.95 19.268 42.95 42.95-19.268 42.95-42.95 42.95z"/><path d="m437.352 75.943h-12.965v-19.972c0-4.143-3.357-7.5-7.5-7.5s-7.5 3.357-7.5 7.5v27.473c0 4.143 3.357 7.5 7.5 7.5h20.465c4.143 0 7.5-3.357 7.5-7.5s-3.358-7.501-7.5-7.501z"/></g></svg>