<svg id="Capa_1" enable-background="new 0 0 511.625 511.625" height="512" viewBox="0 0 511.625 511.625" width="512" xmlns="http://www.w3.org/2000/svg"><g><path d="m454.359 284.911-33.637-51.01c-.006-.01-.014-.019-.021-.028-1.969-3.254-4.951-6.189-8.273-8.101l-95.104-54.707c5.155-10.258 7.875-21.764 7.875-33.41 0-13.425-3.57-26.529-10.324-37.898-2.116-3.561-6.718-4.73-10.279-2.617-3.561 2.116-4.732 6.718-2.617 10.279 5.378 9.052 8.221 19.507 8.221 30.236 0 9.838-2.416 19.537-6.986 28.048-7.815 14.547-13.037 26.051-17.275 36.68-.494-.02-8.492-.017-9.001-.017l6.084-32.666c.759-4.072-1.928-7.988-6-8.746-4.065-.762-7.987 1.927-8.746 6l-6.591 35.387c-3.333-.008-6.378-.016-9.15-.023-.891-.002-1.756-.005-2.597-.007l-6.585-35.357c-.759-4.073-4.683-6.762-8.746-6-4.072.758-6.759 4.674-6 8.746l6.072 32.6c-.839.003-7.969.063-8.972.103-4.384-11.09-9.258-21.939-17.137-36.413-4.673-8.585-7.143-18.384-7.143-28.338l.001-.298c.15-30.93 24.204-56.438 53.612-56.863 8.752-.121 17.146 1.869 24.906 5.917 3.672 1.915 8.203.491 10.118-3.181 1.916-3.673.491-8.203-3.181-10.118-9.696-5.058-20.148-7.622-31.069-7.623-.324 0-.649.002-.983.007-37.527.542-68.213 32.746-68.403 71.76l-.001.399c0 11.652 2.716 23.152 7.873 33.414l-95.102 54.706c-3.387 1.949-6.232 4.738-8.286 8.118-.002.004-.005.007-.008.01l-33.636 51.01c-4.696 7.12-2.723 16.683 4.41 21.362l25.869 16.971v81.718c0 8.288 4.464 16.006 11.651 20.142l25.903 14.901c3.592 2.064 8.176.829 10.241-2.761 2.065-3.591.829-8.176-2.761-10.241l-25.904-14.901c-2.548-1.466-4.131-4.202-4.131-7.14v-71.877l46.783 30.69 50.767 33.304c7.098 4.654 16.634 2.691 21.309-4.402l26.908-40.806v141.705l-85.323-49.081c-3.587-2.064-8.174-.829-10.24 2.762-2.065 3.59-.829 8.175 2.762 10.24l88.715 51.033c3.519 2.024 7.525 3.095 11.587 3.095s8.068-1.07 11.586-3.095l145.031-83.427c7.186-4.135 11.649-11.853 11.649-20.142v-81.718l25.868-16.97c7.132-4.676 9.106-14.237 4.411-21.361zm-167.116-65.146c0 1.299-.902 2.396-1.97 2.396-4.143 0-7.5 3.357-7.5 7.5s3.357 7.5 7.5 7.5c1.067 0 1.97 1.097 1.97 2.395 0 1.449-1.038 2.396-1.97 2.396-57.861 0-57.779.019-59.28-.05-.016-.005-.031-.009-.047-.013-.013-.003-.026-.005-.04-.008-.861-.253-1.525-1.212-1.525-2.325 0-1.298.902-2.395 1.97-2.395 4.143 0 7.5-3.357 7.5-7.5s-3.357-7.5-7.5-7.5c-1.067 0-1.97-1.097-1.97-2.396 0-.976.51-1.837 1.216-2.206 2.144-.262 2.236-.19 59.676-.19.899 0 1.97.932 1.97 2.396zm-5.484 37.185c-1.574 13.121-12.189 23.3-25.009 23.3-12.817 0-23.432-10.178-25.008-23.298 6.792.035 18.44.001 50.017-.002zm-80.502-72.582c4.536 9.053 7.69 16.357 11.226 25.404-1.947 2.831-3.101 6.273-3.101 9.992 0 3.673 1.116 7.085 3.02 9.896-1.903 2.811-3.02 6.222-3.02 9.895 0 5.846 2.836 11.015 7.163 14.171.081 22.911 18.085 41.524 40.205 41.524 22.172 0 40.21-18.697 40.21-41.68v-1.435c3.247-3.171 5.283-7.632 5.283-12.581 0-3.673-1.116-7.084-3.02-9.895 1.903-2.811 3.02-6.223 3.02-9.896 0-3.718-1.153-7.158-3.099-9.989 3.412-8.67 6.748-16.259 11.281-25.375l91.111 52.411-141.616 81.466c-.315.181-.641.34-.973.476-.062.025-.127.04-.19.064-1.893.723-3.996.723-5.89 0-.063-.024-.128-.039-.19-.064-.332-.136-.657-.295-.973-.476l-141.617-81.464zm-131.527 109.106c-.034-.164.033-.266.06-.305l29.752-45.119c7.883 4.535 136.421 78.475 144.466 83.103l-35.126 53.266c-.122.186-.374.237-.56.115l-138.418-90.804c-.039-.025-.14-.091-.174-.256zm339.349 111.488c0 2.938-1.583 5.674-4.129 7.14l-141.638 81.475v-141.707c.356.54 26.574 40.302 26.933 40.841 4.45 6.712 13.783 9.19 21.285 4.367h.001l97.547-63.994v71.878zm32.641-111.232-138.417 90.805c-.024.017-.052.022-.079.032-.106.041-.221.035-.321-.015-.062-.031-.119-.072-.159-.134l-35.126-53.267 144.466-83.103 29.752 45.118c.025.039.093.142.059.307-.034.166-.135.232-.175.257z"/><g><path d="m255.813 43.393c-4.143 0-7.5-3.357-7.5-7.5v-28.393c0-4.143 3.357-7.5 7.5-7.5s7.5 3.357 7.5 7.5v28.393c0 4.142-3.358 7.5-7.5 7.5z"/></g><g><path d="m164.493 76.825-20.076-20.076c-2.929-2.93-2.929-7.678 0-10.607 2.93-2.928 7.678-2.928 10.607 0l20.076 20.076c2.929 2.93 2.929 7.678 0 10.607-2.93 2.929-7.677 2.928-10.607 0z"/></g><g><path d="m336.524 76.825c-2.929-2.93-2.929-7.678 0-10.607l20.076-20.076c2.93-2.928 7.678-2.928 10.607 0 2.929 2.93 2.929 7.678 0 10.607l-20.076 20.076c-2.93 2.929-7.677 2.928-10.607 0z"/></g><g><path d="m397.49 144.139h-28.393c-4.143 0-7.5-3.357-7.5-7.5s3.357-7.5 7.5-7.5h28.393c4.143 0 7.5 3.357 7.5 7.5s-3.357 7.5-7.5 7.5z"/></g><g><path d="m142.527 144.139h-28.393c-4.143 0-7.5-3.357-7.5-7.5s3.357-7.5 7.5-7.5h28.393c4.143 0 7.5 3.357 7.5 7.5s-3.357 7.5-7.5 7.5z"/></g></g></svg>