<svg id="Capa_1" enable-background="new 0 0 512 512" height="512" viewBox="0 0 512 512" width="512" xmlns="http://www.w3.org/2000/svg"><g><path d="m196.095 323.858c-4.142 0-7.5 3.357-7.5 7.5 0 8.155-6.634 14.79-14.789 14.79s-14.79-6.635-14.79-14.79c0-4.143-3.358-7.5-7.5-7.5s-7.5 3.357-7.5 7.5c0 16.427 13.364 29.79 29.79 29.79s29.789-13.363 29.789-29.79c0-4.142-3.358-7.5-7.5-7.5z"/><path d="m223.945 272.834c-4.142 0-7.5 3.357-7.5 7.5v18.916c0 4.143 3.358 7.5 7.5 7.5s7.5-3.357 7.5-7.5v-18.916c0-4.143-3.358-7.5-7.5-7.5z"/><path d="m123.667 272.834c-4.142 0-7.5 3.357-7.5 7.5v18.916c0 4.143 3.358 7.5 7.5 7.5s7.5-3.357 7.5-7.5v-18.916c0-4.143-3.358-7.5-7.5-7.5z"/><path d="m476.632 50.809c4.142 0 7.5-3.357 7.5-7.5v-14.695c0-15.778-12.837-28.614-28.614-28.614h-148.884c-15.778 0-28.614 12.836-28.614 28.614v107.695c-5.533-2.656-11.532-4.274-17.737-4.749-9.785-18.862-29.486-31.787-52.162-31.787h-90.136c-42.327 0-76.763 34.436-76.763 76.763v70.954c0 1.638.531 3.149 1.422 4.383-7.959 7.689-12.923 18.459-12.923 30.373v.213c0 21.338 15.901 39.022 36.474 41.85 7.179 32.325 28.635 59.338 57.391 74.045v22.414h-28.475c-11.663 0-23.156 3.034-33.236 8.776-3.599 2.05-4.855 6.629-2.805 10.229s6.63 4.857 10.229 2.805c7.822-4.455 16.748-6.81 25.813-6.81h28.584c1.723 26.33 23.738 46.759 49.953 46.759 26.236 0 48.231-20.45 49.953-46.759h28.585c9.224 0 18.286 2.434 26.208 7.038.005.003.01.006.015.009 16.05 9.335 26.019 26.651 26.019 45.195v8.99h-261.561v-8.989c0-8.302 1.888-16.235 5.61-23.581 1.873-3.695.396-8.208-3.299-10.08-3.695-1.873-8.208-.396-10.081 3.299-4.798 9.467-7.23 19.683-7.23 30.362v16.489c0 4.143 3.358 7.5 7.5 7.5h276.56c4.142 0 7.5-3.357 7.5-7.5v-16.489c0-23.866-12.828-46.15-33.479-58.162-.006-.004-.012-.007-.019-.011-10.208-5.934-21.877-9.069-33.745-9.069h-28.477v-22.223c28.811-14.517 50.523-41.681 57.703-74.236 20.575-2.827 36.478-20.512 36.478-41.851v-.213c0-13.915-6.764-26.277-17.174-33.981l3.725-42.245c1.668.128-.014.093 26.71.093l-3.871 16.086c-3.239 13.423 11.433 23.842 23.022 16.646l52.784-32.731h52.432c15.778 0 28.614-12.837 28.614-28.615v-99.19c0-4.143-3.358-7.5-7.5-7.5s-7.5 3.357-7.5 7.5v99.188c0 7.508-6.107 13.615-13.614 13.615h-54.568c-1.396 0-2.766.39-3.953 1.126-55.699 34.539-55.156 34.521-55.156 33.629 0-.028.004-.079.023-.157l6.099-25.343c1.135-4.716-2.446-9.255-7.292-9.255h-34.036c-7.419 0-13.614-6.105-13.614-13.615 0-4.894 0-141.124 0-148.883 0-7.507 6.107-13.614 13.614-13.614h148.883c7.507 0 13.614 6.107 13.614 13.614v14.694c.001 4.143 3.359 7.501 7.501 7.501zm-420.409 189.181v-63.454c0-34.056 27.707-61.763 61.763-61.763h90.136c24.068 0 43.735 19.582 43.735 43.735 0 19.216.316 23.722-1.274 31.472-6.038 29.433-32.193 50.009-61.335 50.009-3.904.001-129.116.001-133.025.001zm7.654 68.496c-11.085-3.458-19.155-13.818-19.155-26.027v-.213c0-12.208 8.068-22.567 19.153-26.026-.177 2.433-.29 5.43-.29 7.974v36.282c0 2.604.134 5.852.292 8.01zm144.832 123.98c0 19.333-15.728 35.062-35.061 35.062s-35.061-15.729-35.061-35.062c0-10.68 0-17.277 0-27.774 10.421 3.493 22.479 5.643 34.856 5.643 12.039 0 24.062-1.902 35.266-5.586zm-35.266-37.132c-52.399 0-94.858-42.663-94.858-94.858v-36.282c0-2.649.136-5.813.465-9.203h110.199c27.373 0 52.997-14.632 66.959-38.361 5.733 9.892 9.668 20.789 11.522 32.077 1.325 8.067 2.5 51.952.008 67.141-7.423 45.023-46.881 79.486-94.295 79.486zm129.447-112.875c0 12.219-8.081 22.585-19.18 26.034.169-2.343.288-5.557.288-8.018v-36.282c0-2.437-.102-5.369-.291-7.965 11.119 3.435 19.183 13.841 19.183 26.018zm-16.622-41.112c-1.452-.378-3.148-.72-4.852-.958-3.177-14.456-9.291-28.094-17.975-40.183 4.123-13.38 3.416-21.81 3.416-41.697 0-3.718-.415-7.713-.996-10.82 4.398 1.229 8.526 3.317 12.159 6.178 0 23.936-.164 25.337.468 28.753 1.341 7.384 5.52 13.787 11.367 18.036z"/><path d="m381.076 74.725c-15.622 0-28.332 12.709-28.332 28.331s12.709 28.332 28.332 28.332c15.622 0 28.331-12.71 28.331-28.332s-12.709-28.331-28.331-28.331zm0 41.663c-7.351 0-13.332-5.98-13.332-13.332 0-7.351 5.98-13.331 13.332-13.331 7.351 0 13.331 5.98 13.331 13.331s-5.98 13.332-13.331 13.332z"/><path d="m445.083 124.939c6.515 0 11.815-5.3 11.815-11.814v-20.138c0-6.515-5.3-11.814-11.815-11.814h-8.937c-.211-.53-.43-1.059-.656-1.583l6.32-6.319c4.617-4.616 4.619-12.09 0-16.71l-14.24-14.239c-4.606-4.605-12.102-4.605-16.708 0l-6.32 6.321c-.524-.227-1.052-.445-1.582-.656v-8.938c0-6.515-5.3-11.815-11.815-11.815h-20.137c-6.515 0-11.815 5.301-11.815 11.815v8.938c-.53.211-1.058.43-1.582.656l-6.321-6.321c-4.606-4.605-12.101-4.605-16.708 0l-14.24 14.24c-4.616 4.617-4.617 12.091.001 16.709l6.32 6.319c-.226.524-.445 1.053-.656 1.583h-8.937c-6.515 0-11.815 5.3-11.815 11.814v20.138c0 6.515 5.3 11.814 11.815 11.814h8.937c.211.53.43 1.059.656 1.583l-6.32 6.319c-4.617 4.616-4.619 12.09 0 16.71l14.24 14.239c4.606 4.605 12.102 4.606 16.709-.001l6.319-6.319c.525.227 1.053.445 1.583.656v8.937c0 6.515 5.3 11.814 11.815 11.814h20.137c6.515 0 11.815-5.3 11.815-11.814v-8.938c.53-.211 1.058-.43 1.582-.656l6.321 6.321c4.606 4.605 12.102 4.605 16.708 0l14.24-14.24c4.616-4.617 4.617-12.091-.001-16.709l-6.32-6.319c.226-.524.445-1.053.656-1.583zm-14.287-15c-3.341 0-6.279 2.21-7.206 5.419-.906 3.139-2.169 6.186-3.755 9.056-1.616 2.925-1.102 6.566 1.262 8.93l7.854 7.854-9.735 9.734-7.853-7.854c-2.363-2.362-6.005-2.879-8.931-1.262-2.869 1.585-5.915 2.848-9.054 3.754-3.21.927-5.419 3.865-5.419 7.206v11.102h-13.767v-11.102c0-3.342-2.211-6.28-5.422-7.206-1.197-.346-2.396-.748-3.565-1.198-1.873-.72-3.718-1.58-5.486-2.557-2.926-1.616-6.567-1.102-8.93 1.263l-7.853 7.854-9.735-9.734 7.854-7.854c2.363-2.363 2.877-6.005 1.262-8.93-1.585-2.87-2.849-5.917-3.755-9.056-.927-3.209-3.865-5.419-7.206-5.419h-11.102v-13.766h11.102c3.341 0 6.279-2.21 7.206-5.419.906-3.139 2.169-6.186 3.755-9.056 1.616-2.925 1.102-6.566-1.262-8.93l-7.854-7.854 9.735-9.734 7.854 7.854c2.363 2.362 6.003 2.879 8.929 1.262 2.87-1.585 5.917-2.849 9.057-3.756 3.209-.928 5.417-3.865 5.417-7.205v-11.102h13.767v11.102c0 3.34 2.209 6.277 5.417 7.205 3.14.907 6.187 2.171 9.057 3.756 2.925 1.616 6.566 1.1 8.929-1.262l7.854-7.854 9.735 9.734-7.854 7.854c-2.363 2.363-2.877 6.005-1.262 8.93 1.585 2.87 2.849 5.917 3.755 9.056.927 3.209 3.865 5.419 7.206 5.419h11.102v13.767h-11.103z"/></g></svg>