<svg version="1.2" baseProfile="tiny-ps" xmlns="http://www.w3.org/2000/svg" viewBox="0 0 1028 1027" width="1028" height="1027">
	<title>Слой 1</title>
	<defs>
		<linearGradient id="grd1" gradientUnits="userSpaceOnUse"  x1="151.789" y1="113.637" x2="390.461" y2="-281.307">
			<stop offset="0" stop-color="#5599d2"  />
			<stop offset="0.51" stop-color="#66a2d6"  />
			<stop offset="1" stop-color="#66a2d6"  />
		</linearGradient>
		<linearGradient id="grd2" gradientUnits="userSpaceOnUse"  x1="371.69" y1="460.779" x2="441.091" y2="225.589">
			<stop offset="0" stop-color="#5599d2"  />
			<stop offset="0.51" stop-color="#66a2d6"  />
			<stop offset="1" stop-color="#66a2d6"  />
		</linearGradient>
		<linearGradient id="grd3" gradientUnits="userSpaceOnUse"  x1="619.257" y1="813.568" x2="413.193" y2="655.3">
			<stop offset="0" stop-color="#5599d2"  />
			<stop offset="0.51" stop-color="#66a2d6"  />
			<stop offset="1" stop-color="#66a2d6"  />
		</linearGradient>
		<linearGradient id="grd4" gradientUnits="userSpaceOnUse"  x1="605.237" y1="935.331" x2="369.848" y2="687.42">
			<stop offset="0" stop-color="#66a2d6"  />
			<stop offset="1" stop-color="#9dc9e9"  />
		</linearGradient>
		<linearGradient id="grd5" gradientUnits="userSpaceOnUse"  x1="512.541" y1="801.901" x2="446.317" y2="732.153">
			<stop offset="0" stop-color="#66a2d6"  />
			<stop offset="1" stop-color="#9dc9e9"  />
		</linearGradient>
		<linearGradient id="grd6" gradientUnits="userSpaceOnUse"  x1="601.379" y1="821.223" x2="530.337" y2="746.402">
			<stop offset="0" stop-color="#66a2d6"  />
			<stop offset="1" stop-color="#9dc9e9"  />
		</linearGradient>
		<linearGradient id="grd7" gradientUnits="userSpaceOnUse"  x1="597.566" y1="410.824" x2="275.493" y2="439.862">
			<stop offset="0" stop-color="#5599d2"  />
			<stop offset="0.51" stop-color="#66a2d6"  />
			<stop offset="1" stop-color="#ffa968"  />
		</linearGradient>
		<linearGradient id="grd8" gradientUnits="userSpaceOnUse"  x1="566.086" y1="757.002" x2="531.333" y2="755.805">
			<stop offset="0" stop-color="#5599d2"  />
			<stop offset="0.51" stop-color="#66a2d6"  />
			<stop offset="1" stop-color="#ffa968"  />
		</linearGradient>
		<linearGradient id="grd9" gradientUnits="userSpaceOnUse"  x1="540.097" y1="682.124" x2="479.881" y2="674.195">
			<stop offset="0" stop-color="#5599d2"  />
			<stop offset="0.51" stop-color="#66a2d6"  />
			<stop offset="1" stop-color="#ffa968"  />
		</linearGradient>
		<linearGradient id="grd10" gradientUnits="userSpaceOnUse"  x1="477.158" y1="691.17" x2="542.883" y2="631.947">
			<stop offset="0" stop-color="#5599d2"  />
			<stop offset="1" stop-color="#ffa968"  />
		</linearGradient>
		<linearGradient id="grd11" gradientUnits="userSpaceOnUse"  x1="453.878" y1="627.279" x2="476.035" y2="553.189">
			<stop offset="0" stop-color="#5599d2"  />
			<stop offset="1" stop-color="#ffa968"  />
		</linearGradient>
		<linearGradient id="grd12" gradientUnits="userSpaceOnUse"  x1="437.35" y1="555.854" x2="396.359" y2="466.115">
			<stop offset="0" stop-color="#5599d2"  />
			<stop offset="1" stop-color="#ffa968"  />
		</linearGradient>
		<linearGradient id="grd13" gradientUnits="userSpaceOnUse"  x1="314.123" y1="426.002" x2="239.252" y2="353.124">
			<stop offset="0" stop-color="#fc9d4f"  />
			<stop offset="0.423" stop-color="#ffb883"  />
			<stop offset="1" stop-color="#ffa968"  />
		</linearGradient>
		<linearGradient id="grd14" gradientUnits="userSpaceOnUse"  x1="345.012" y1="495.419" x2="357.299" y2="380.974">
			<stop offset="0" stop-color="#fc9d4f"  />
			<stop offset="0.423" stop-color="#ffa968"  />
			<stop offset="1" stop-color="#ffa968"  />
		</linearGradient>
		<linearGradient id="grd15" gradientUnits="userSpaceOnUse"  x1="561.182" y1="874.533" x2="431.378" y2="881.325">
			<stop offset="0" stop-color="#5599d2"  />
			<stop offset="1" stop-color="#ffa968"  />
		</linearGradient>
		<linearGradient id="grd16" gradientUnits="userSpaceOnUse"  x1="507.994" y1="784.611" x2="386.549" y2="810.369">
			<stop offset="0" stop-color="#5599d2"  />
			<stop offset="1" stop-color="#ffa968"  />
		</linearGradient>
		<linearGradient id="grd17" gradientUnits="userSpaceOnUse"  x1="459.069" y1="657.987" x2="359.818" y2="655.928">
			<stop offset="0" stop-color="#5599d2"  />
			<stop offset="1" stop-color="#ffa968"  />
		</linearGradient>
		<linearGradient id="grd18" gradientUnits="userSpaceOnUse"  x1="433.74" y1="600.553" x2="360.332" y2="586.365">
			<stop offset="0" stop-color="#5599d2"  />
			<stop offset="1" stop-color="#ffa968"  />
		</linearGradient>
		<linearGradient id="grd19" gradientUnits="userSpaceOnUse"  x1="399.873" y1="558.074" x2="358.342" y2="524.18">
			<stop offset="0" stop-color="#5599d2"  />
			<stop offset="1" stop-color="#ffa968"  />
		</linearGradient>
		<linearGradient id="grd20" gradientUnits="userSpaceOnUse"  x1="332.753" y1="500.113" x2="216.607" y2="507.188">
			<stop offset="0" stop-color="#fc9d4f"  />
			<stop offset="0.423" stop-color="#ffa968"  />
			<stop offset="1" stop-color="#ffa968"  />
		</linearGradient>
		<linearGradient id="grd21" gradientUnits="userSpaceOnUse"  x1="710.308" y1="967.86" x2="710.308" y2="482.923">
			<stop offset="0" stop-color="#5599d2"  />
			<stop offset="0.51" stop-color="#66a2d6"  />
			<stop offset="1" stop-color="#66a2d6"  />
		</linearGradient>
		<linearGradient id="grd22" gradientUnits="userSpaceOnUse"  x1="610.834" y1="763.959" x2="831.788" y2="352.932">
			<stop offset="0" stop-color="#5599d2"  />
			<stop offset="0.51" stop-color="#66a2d6"  />
			<stop offset="1" stop-color="#66a2d6"  />
		</linearGradient>
		<linearGradient id="grd23" gradientUnits="userSpaceOnUse"  x1="463.065" y1="323.739" x2="524.55" y2="323.739">
			<stop offset="0.01" stop-color="#a8e2f7"  />
			<stop offset="1" stop-color="#75bce5"  />
		</linearGradient>
		<linearGradient id="grd24" gradientUnits="userSpaceOnUse"  x1="165.987" y1="326.108" x2="124.599" y2="328.234">
			<stop offset="0.01" stop-color="#a8e2f7"  />
			<stop offset="1" stop-color="#75bce5"  />
		</linearGradient>
		<linearGradient id="grd25" gradientUnits="userSpaceOnUse"  x1="158.451" y1="320.032" x2="148.644" y2="320.536">
			<stop offset="0.01" stop-color="#a8e2f7"  />
			<stop offset="1" stop-color="#75bce5"  />
		</linearGradient>
	</defs>
	<style>
		tspan { white-space:pre }
		.shp0 { fill: url(#grd1) } 
		.shp1 { fill: url(#grd2) } 
		.shp2 { fill: url(#grd3) } 
		.shp3 { fill: url(#grd4) } 
		.shp4 { fill: url(#grd5) } 
		.shp5 { fill: url(#grd6) } 
		.shp6 { fill: url(#grd7) } 
		.shp7 { fill: url(#grd8) } 
		.shp8 { fill: url(#grd9) } 
		.shp9 { fill: url(#grd10) } 
		.shp10 { fill: url(#grd11) } 
		.shp11 { fill: url(#grd12) } 
		.shp12 { fill: url(#grd13) } 
		.shp13 { fill: url(#grd14) } 
		.shp14 { fill: url(#grd15) } 
		.shp15 { fill: url(#grd16) } 
		.shp16 { fill: url(#grd17) } 
		.shp17 { fill: url(#grd18) } 
		.shp18 { fill: url(#grd19) } 
		.shp19 { fill: url(#grd20) } 
		.shp20 { fill: url(#grd21) } 
		.shp21 { fill: url(#grd22) } 
		.shp22 { fill: #606060 } 
		.shp23 { fill: #54322f } 
		.shp24 { fill: #fdc8a9 } 
		.shp25 { fill: #efb192 } 
		.shp26 { fill: url(#grd23) } 
		.shp27 { fill: #ffaede } 
		.shp28 { opacity: 0.29;mix-blend-mode: multiply;fill: #232323 } 
		.shp29 { fill: #232323 } 
		.shp30 { fill: #afafaf } 
		.shp31 { fill: #303030 } 
		.shp32 { fill: #68413c } 
		.shp33 { fill: #ffffff } 
		.shp34 { fill: #eaeaea } 
		.shp35 { fill: url(#grd24) } 
		.shp36 { opacity: 0.149;mix-blend-mode: multiply;fill: #232323 } 
		.shp37 { fill: url(#grd25) } 
	</style>
	<g id="Слой 1">
		<g id="&lt;Group&gt;">
			<g id="&lt;Group&gt;" style="opacity: 0.4">
				<path id="&lt;Compound Path&gt;" fill-rule="evenodd" class="shp0" d="M1018 413.13L1027.25 540.2C1028.39 555.83 1016.64 569.43 1001.01 570.56L917.23 576.66C911.5 622.63 898 666.41 878 706.55L938.58 758.91C950.44 769.16 951.74 787.08 941.49 798.93L858.18 895.33C847.93 907.18 830.01 908.49 818.16 898.24L760.67 848.55C723.58 876.87 681.37 899.01 635.45 913.26L640.83 987.28C641.97 1002.91 630.22 1016.5 614.59 1017.64L487.52 1026.88C471.89 1028.02 458.29 1016.27 457.16 1000.64L451.77 926.62C404.27 919.17 359.29 903.38 318.49 880.73L268.81 938.21C258.56 950.07 240.64 951.38 228.79 941.13L132.39 857.81C120.54 847.57 119.23 829.65 129.48 817.79L181.84 757.21C156.25 720.39 136.55 679.02 124.23 634.37L40.44 640.46C24.81 641.6 11.22 629.85 10.08 614.22L0.84 487.15C-0.3 471.52 11.45 457.93 27.08 456.79L116.65 450.27C124.78 407.43 139.7 366.81 160.32 329.66L89.51 268.44C77.65 258.2 76.34 240.28 86.59 228.42L169.91 132.03C180.15 120.17 198.07 118.87 209.93 129.11L283.85 193C317.28 169.76 354.46 151.37 394.45 138.96L387.26 40.08C386.12 24.45 397.87 10.85 413.5 9.72L540.57 0.47C556.2 -0.67 569.79 11.08 570.93 26.71L578.13 125.59C619.49 132.08 658.94 144.9 695.39 163.06L759.28 89.14C769.52 77.28 787.44 75.98 799.3 86.23L895.69 169.54C907.55 179.79 908.85 197.71 898.61 209.56L837.39 280.38C863.18 314.16 883.83 352.19 898.07 393.41L987.64 386.89C1003.27 385.75 1016.87 397.5 1018 413.13ZM744.52 496.9C735.2 368.93 623.91 272.74 495.94 282.05C367.97 291.37 271.78 402.66 281.09 530.63C290.4 658.6 401.69 754.79 529.66 745.48C657.64 736.17 753.83 624.88 744.52 496.9Z" />
				<path id="&lt;Path&gt;" class="shp1" d="M504.69 385.18C426.86 390.84 368.35 458.53 374.02 536.36C379.68 614.2 447.37 672.71 525.2 667.04C603.04 661.38 661.55 593.69 655.88 515.85C650.22 438.02 582.53 379.51 504.69 385.18Z" />
			</g>
			<g id="&lt;Group&gt;">
				<path id="&lt;Path&gt;" class="shp2" d="M567.76 871.45C564.32 865.11 561.65 858.18 559.8 850.79C556.23 836.52 550.36 811.3 547.35 788.54C542.85 754.42 524.83 730.74 505.89 759.86C486.94 788.98 471.1 757.49 462.01 745.57C452.93 733.65 438.69 726.18 424.21 747.51C409.74 768.83 397.95 752.16 382.65 736.66C367.34 721.17 316.48 707.07 313.5 754.81C310.51 802.55 380.4 810.9 353.24 836.38C326.07 861.86 341.67 914.71 377.91 900.65C414.14 886.59 421.71 910.18 415.3 926.2C408.89 942.21 418.97 966.16 451.96 947.38C473.95 934.86 524.4 931.36 603.3 936.9L567.76 871.45Z" />
				<g id="&lt;Group&gt;">
					<path id="&lt;Path&gt;" class="shp3" d="M603.09 937.37C601.19 936.51 412.02 849.94 317.82 736.82L318.62 736.16C412.67 849.09 601.62 935.56 603.52 936.42L603.09 937.37Z" />
				</g>
				<g id="&lt;Group&gt;">
					<path id="&lt;Path&gt;" class="shp4" d="M341.26 881.11L340.7 880.23C370.08 861.44 448.56 854.36 455.79 853.75L444.27 734.1L445.31 734L456.93 854.7L456.4 854.74C455.56 854.81 371.7 861.65 341.26 881.11Z" />
				</g>
				<g id="&lt;Group&gt;">
					<path id="&lt;Path&gt;" class="shp5" d="M419.77 950.64L418.97 949.97C438.59 926.54 515.43 897.17 522.1 894.65C510.33 854.45 528.25 749.27 528.44 748.21L529.46 748.39C529.28 749.45 511.26 855.21 523.23 894.82L523.38 895.29L522.92 895.46C522.09 895.76 440.01 926.47 419.77 950.64Z" />
				</g>
			</g>
			<g id="&lt;Group&gt;">
				<g id="&lt;Group&gt;">
					<path id="&lt;Path&gt;" class="shp6" d="M643.27 931C642.89 930.8 605.16 910.92 564.84 875.25C527.6 842.29 480.46 788.73 467.38 720.71C442.42 590.97 317.58 474.18 275.82 443.5L277.13 441.72C295.29 455.07 337.03 491.26 378.25 542.27C412.41 584.55 455.97 649.75 469.54 720.3C482.51 787.7 529.32 840.87 566.3 873.59C606.42 909.09 643.92 928.85 644.29 929.05L643.27 931Z" />
				</g>
				<path id="&lt;Path&gt;" class="shp7" d="M537.54 847.13C601.67 812.74 620.33 785.36 593.5 765C554.96 735.75 531.98 806.76 537.54 847.13Z" />
				<path id="&lt;Path&gt;" class="shp8" d="M479.66 762.81C548.65 737.4 571.8 712.73 549.13 688.79C516.53 654.38 481.39 721.87 479.66 762.81Z" />
				<path id="&lt;Path&gt;" class="shp9" d="M451.99 675.1C521.14 646.5 543.51 620.48 519.12 597.04C484.05 563.34 451.64 633.39 451.99 675.1Z" />
				<path id="&lt;Path&gt;" class="shp10" d="M422.2 604.25C476.95 556.83 488.07 526.02 455.55 511.83C408.82 491.44 405.45 565.9 422.2 604.25Z" />
				<path id="&lt;Path&gt;" class="shp11" d="M376.08 540.34C410.23 480.17 409.02 448.35 372.44 444.9C319.87 439.94 345.29 509.84 376.08 540.34Z" />
				<path id="&lt;Path&gt;" class="shp12" d="M275.92 444.01C257.91 380.7 233.23 358.34 201.9 376.95C156.87 403.68 228.98 439.67 275.92 444.01Z" />
				<path id="&lt;Path&gt;" class="shp13" d="M312.98 473.25C359.23 419.36 364.94 387.64 330.11 378.1C280.04 364.38 289.64 437.88 312.98 473.25Z" />
				<path id="&lt;Path&gt;" class="shp14" d="M540.26 847.5C478.08 884.69 442.58 888.01 433.75 857.46C421.05 813.56 502.17 825.56 540.26 847.5Z" />
				<path id="&lt;Path&gt;" class="shp15" d="M481.66 760.6C426.41 805.61 391.67 813.75 377.45 785.01C357.01 743.71 439.87 744.33 481.66 760.6Z" />
				<path id="&lt;Path&gt;" class="shp16" d="M458.88 670.32C400.36 714.09 364.61 721.02 351.63 691.1C332.97 648.1 417.21 652.04 458.88 670.32Z" />
				<path id="&lt;Path&gt;" class="shp17" d="M419.65 603.66C366.47 640.07 334.88 644.91 324.88 618.17C310.5 579.74 384.01 586.14 419.65 603.66Z" />
				<path id="&lt;Path&gt;" class="shp18" d="M373 542.52C304.63 572.65 268.46 571.63 264.48 539.46C258.76 493.24 338.28 515.49 373 542.52Z" />
				<path id="&lt;Path&gt;" class="shp19" d="M313.66 475.9C258.16 509.68 226.32 512.9 218.12 485.56C206.34 446.26 279.27 456.48 313.66 475.9Z" />
			</g>
			<g id="&lt;Group&gt;">
				<path id="&lt;Compound Path&gt;" fill-rule="evenodd" class="shp20" d="M952.57 737.18L942.23 796.42C940.96 803.71 934.02 808.58 926.73 807.31L887.67 800.49C879.78 820.88 868.57 839.37 854.81 855.45L876.54 886.38C880.79 892.43 879.33 900.78 873.28 905.04L824.08 939.61C818.02 943.86 809.67 942.4 805.42 936.35L784.8 907.01C764.57 915.72 742.7 921.01 720.04 922.26L714.02 956.77C712.74 964.06 705.8 968.93 698.52 967.66L639.28 957.31C631.99 956.04 627.12 949.1 628.39 941.81L634.42 907.31C613.52 898.45 594.74 886.06 578.66 871.01L549.32 891.62C543.27 895.88 534.92 894.42 530.66 888.36L496.09 839.16C491.84 833.11 493.3 824.75 499.35 820.5L530.27 798.77C522.78 778.98 518.51 757.78 517.99 735.92L478.93 729.1C471.64 727.83 466.77 720.89 468.04 713.6L478.39 654.36C479.66 647.08 486.6 642.2 493.89 643.47L535.64 650.77C544.28 632.09 555.77 615.2 569.48 600.56L544.08 564.41C539.82 558.35 541.28 550 547.34 545.75L596.54 511.17C602.59 506.92 610.95 508.38 615.2 514.43L641.71 552.17C659.68 545.36 678.81 541.2 698.55 540.11L706.6 494.01C707.87 486.73 714.81 481.85 722.1 483.12L781.34 493.47C788.62 494.74 793.5 501.68 792.23 508.97L784.17 555.07C802.37 562.78 818.96 573.18 833.56 585.67L871.29 559.16C877.35 554.91 885.7 556.37 889.95 562.42L924.52 611.62C928.78 617.68 927.32 626.03 921.27 630.28L885.12 655.68C893.05 674.11 898.14 693.89 899.93 714.39L941.68 721.68C948.97 722.96 953.85 729.89 952.57 737.18ZM817.75 744.16C828.17 684.5 788.25 627.69 728.59 617.27C668.94 606.85 612.13 646.77 601.71 706.42C591.29 766.08 631.2 822.89 690.86 833.31C750.52 843.73 807.33 803.81 817.75 744.16Z" />
				<path id="&lt;Path&gt;" class="shp21" d="M720.77 665.49C684.48 659.15 649.93 683.43 643.59 719.71C637.26 756 661.54 790.55 697.82 796.89C734.11 803.22 768.66 778.95 775 742.66C781.33 706.38 757.06 671.82 720.77 665.49Z" />
			</g>
			<g id="&lt;Group&gt;">
				<g id="&lt;Group&gt;" style="opacity: 0.169">
					<path id="&lt;Path&gt;" class="shp22" d="M644.29 948.26C644.29 953.2 587.34 957.2 517.09 957.2C446.84 957.2 389.9 953.2 389.9 948.26C389.9 943.32 446.84 939.31 517.09 939.31C587.34 939.31 644.29 943.32 644.29 948.26Z" />
				</g>
				<g id="&lt;Group&gt;">
					<path id="&lt;Path&gt;" class="shp23" d="M458.51 306.42C457.55 320.23 470.92 326.15 498.63 324.17C526.33 322.2 537.68 313.88 532.66 299.21L534.58 243.72L492.38 213.27L464.73 255.89L458.51 306.42Z" />
					<g id="&lt;Group&gt;">
						<path id="&lt;Path&gt;" class="shp24" d="M513.95 324.17L480.52 323.96L480.8 266.37L514.24 266.59L513.95 324.17Z" />
					</g>
					<path id="&lt;Path&gt;" class="shp25" d="M480.69 299.78C485.84 303.9 491.5 306.42 496.93 306.42C502.9 306.42 508.88 303.71 514.13 298.96L514.24 279.18L480.8 278.99L480.69 299.78Z" />
					<path id="&lt;Path&gt;" class="shp24" d="M527.23 252.72C525.76 279.41 509.47 299.21 493.33 299.21C479.87 299.21 464.93 283.93 460.05 266.3C459.43 264.08 458.87 261.23 458.42 258.17C457.68 253.12 457.27 247.53 457.5 243.37C458.96 216.68 471.99 201.53 493.23 202.54C514.47 203.56 528.69 226.03 527.23 252.72Z" />
					<path id="&lt;Path&gt;" class="shp24" d="M551.58 369.31L539.78 511.85C537.99 533.52 519.16 549.62 497.73 547.81C478.83 546.21 464.22 531.2 462.26 512.81L447.02 370.6C443.89 341.44 464.73 315.23 493.57 312.07C522.41 308.91 548.32 329.99 551.45 359.15C551.81 362.49 551.82 366.08 551.58 369.31Z" />
					<path id="&lt;Path&gt;" class="shp24" d="M473.56 488.25C476.81 523.66 478.23 559 479.05 594.33C479.49 611.99 479.63 629.65 479.7 647.3C479.67 656.13 479.72 664.96 479.61 673.78C479.57 682.61 479.34 691.43 479.52 700.26C479.96 735.57 479.86 770.88 479.11 806.19C478.25 841.51 476.94 876.83 473.98 912.18C473.65 916.17 470.14 919.13 466.16 918.79C462.62 918.5 459.89 915.7 459.56 912.29C456.03 876.96 454.16 841.6 452.73 806.23C451.42 770.86 450.75 735.48 450.63 700.11C450.44 691.26 450.95 682.42 451.14 673.58C451.39 664.74 451.79 655.9 452.11 647.05C452.87 629.37 453.72 611.69 454.85 594.02C457.07 558.68 459.89 523.35 464.54 488.08C464.87 485.59 467.15 483.84 469.63 484.17C471.77 484.45 473.37 486.19 473.56 488.25Z" />
					<path id="&lt;Path&gt;" class="shp24" d="M544.81 490.31L541.65 699.03L541.13 693.35L589.14 910.16C590.11 914.54 587.35 918.88 582.97 919.85C578.82 920.77 574.7 918.3 573.46 914.31L508.02 702.11L507.94 701.86C507.39 700.07 507.27 698.18 507.5 696.44L535.83 489.63C536.16 487.16 538.44 485.43 540.91 485.77C543.2 486.08 544.85 488.06 544.81 490.31Z" />
					<path id="&lt;Path&gt;" class="shp26" d="M469.05 335.22C484.87 367.67 502.43 367.67 521.72 335.22C541.01 302.76 541.01 349.94 521.72 476.74C508.55 484.55 489.64 484.55 465.01 476.74C440.38 468.93 441.72 421.75 469.05 335.22Z" />
					<path id="&lt;Path&gt;" class="shp25" d="M544.79 491.89C544.35 490.36 543.91 488.82 543.44 487.23C541.73 487.51 539.35 487.83 536.3 488.19C536.07 488.63 535.9 489.11 535.83 489.63L507.5 696.44C507.27 698.18 507.39 700.07 507.94 701.86L508.02 702.11L513.93 721.28C525.83 720.33 537.07 718.56 545.25 715.5C545.22 714.56 545.2 713.25 545.17 711.57L541.7 695.92L544.79 491.89Z" />
					<path id="&lt;Path&gt;" class="shp25" d="M454.85 594.02C453.72 611.69 452.87 629.37 452.11 647.05C451.79 655.9 451.39 664.74 451.14 673.58C450.95 682.42 450.44 691.26 450.63 700.11C450.65 707.07 450.71 714.03 450.78 721C454.34 721.25 465.65 722 479.71 722.21C479.66 714.89 479.61 707.58 479.52 700.26C479.34 691.43 479.57 682.61 479.61 673.78C479.72 664.96 479.67 656.13 479.7 647.3C479.63 629.65 479.49 611.99 479.05 594.33C478.24 559.43 476.83 524.52 473.67 489.55C470.65 489.35 467.57 489.09 464.45 488.79C459.86 523.82 457.06 558.91 454.85 594.02Z" />
					<path id="&lt;Path&gt;" class="shp27" d="M451.38 476.54C444.25 516.45 440.98 549.75 441.58 576.43C442.18 603.12 444.85 647.71 449.57 710.21C494.12 713.82 526.02 712.02 545.25 704.8C544.04 656.89 545.55 620.88 549.75 596.76C556.06 560.57 561.47 537.64 543.44 476.54C515.04 481.22 484.35 481.22 451.38 476.54Z" />
					<path id="&lt;Path&gt;" class="shp28" d="M482.08 574.51C484.93 543.61 486.79 511.95 487.66 479.52C476.43 479.22 464.14 478.35 451.38 476.54C446.04 506.4 442.85 533.99 441.8 559.32C453.56 569.44 466.98 574.5 482.08 574.51Z" />
					<path id="&lt;Path&gt;" class="shp28" d="M485.94 399.25C481.52 358.83 479.91 327.39 480.52 311.76C457.66 319.46 444.31 342.21 447.02 367.18L464.73 446.68C466.2 460.3 474.77 472.04 486.92 477.74C489.49 440.54 490.24 438.61 485.94 399.25Z" />
					<path id="&lt;Path&gt;" class="shp28" d="M544.42 449.7C544.45 412.63 544.75 421.81 545.35 408.88L548.33 381.19C549.73 374.01 550.73 366.33 551.32 358.15C548.48 335.59 534.83 316.67 514.02 311.76C514.39 319 512.91 355.83 507.51 405.53C503.08 446.2 509.64 540.93 512.12 574.51C528.28 570.84 554.28 569.81 555.73 552.24L544.46 455.33C544.43 453.47 544.42 451.6 544.42 449.7Z" />
					<path id="&lt;Path&gt;" class="shp29" d="M480.52 311.76C478.3 337.01 479.22 368.27 483.27 405.53C487.33 442.79 486.11 496.75 479.61 567.42C460.07 567.42 444.69 559.74 433.47 544.39C444.29 517.66 447.89 485.13 444.29 446.8C438.88 389.3 429.56 400.72 446.09 360.23L440.68 380.29C435.07 346.34 437.27 327.43 447.29 323.57C457.31 319.72 468.38 315.78 480.52 311.76Z" />
					<path id="&lt;Path&gt;" class="shp29" d="M514.02 311.76C515.68 337.01 514.49 368.27 510.44 405.53C506.38 442.79 507.6 496.75 514.1 567.42C533.64 567.42 549.02 559.74 560.24 544.39C551.62 519.76 547.32 488.2 547.35 449.7C547.38 412.63 547.68 421.81 548.28 408.88L551.26 381.19C558.05 346.64 556.44 327.43 546.42 323.57C536.4 319.72 525.6 315.78 514.02 311.76Z" />
					<path id="&lt;Path&gt;" class="shp29" d="M457.43 901.12C464.29 904.2 470.43 904.2 475.84 901.12C474.63 916.42 475.84 929.71 479.44 940.99C484.85 957.92 452.4 956.38 451.5 947.72C450.6 939.06 458.41 913.97 457.43 901.12Z" />
					<path id="&lt;Path&gt;" class="shp29" d="M569.28 901.12C573.94 917.65 574.91 933.55 572.19 948.83C571.63 952 574.31 954.83 577.49 954.3C581.45 953.65 586.58 951.34 590.92 944.55C596.53 935.76 596.73 926.19 591.52 915.84L594.83 922.95L597.53 912.24C592.34 902.19 588.63 896.25 586.41 894.41C581.2 900.35 575.49 902.59 569.28 901.12Z" />
					<path id="&lt;Path&gt;" class="shp24" d="M514.04 472.17C503.38 474.43 494.57 476.87 487.63 479.51C477.21 483.46 461.23 477.2 458.64 468.07C456.92 461.99 467.82 459.99 491.35 462.08L506 460.12L514.04 472.17Z" />
					<path id="&lt;Path&gt;" class="shp29" d="M462.71 339.32L436.32 436.04L435.23 440.04L432.1 442.27L397.42 467.07C392.56 470.54 385.8 469.42 382.33 464.56C378.85 459.7 379.98 452.94 384.84 449.47L419.52 424.67L415.3 430.91L436.44 332.91C438.01 325.61 445.21 320.97 452.51 322.54C459.81 324.12 464.46 331.31 462.88 338.61C462.83 338.84 462.77 339.1 462.71 339.32Z" />
					<g id="&lt;Group&gt;" style="opacity: 0.29;mix-blend-mode: multiply">
						<path id="&lt;Path&gt;" class="shp29" d="M541.99 326.49C534.78 328.47 530.55 335.91 532.52 343.11L548.92 402.86L551.26 381.19C556.66 353.66 556.38 335.57 550.41 326.92C547.81 325.92 544.88 325.7 541.99 326.49Z" />
						<path id="&lt;Path&gt;" class="shp29" d="M508.94 481.82L547.82 468.89C547.52 462.78 547.34 456.39 547.35 449.7C547.35 446.14 547.36 443.01 547.37 440.25L508.45 455.88C508.49 464.47 508.67 473.21 508.94 481.82Z" />
					</g>
					<path id="&lt;Path&gt;" class="shp25" d="M491.63 478.1C498.34 475.89 505.81 473.92 514.04 472.17L506 460.12L491.35 462.08C489.8 461.95 487.89 461.83 485.62 461.72L491.63 478.1Z" />
					<path id="&lt;Path&gt;" class="shp29" d="M496.11 482.78L580.29 454.79C587.38 452.42 591.4 444.85 589.29 437.62L589.2 437.31L558.54 332.43C556.47 325.37 549.11 321.23 541.99 323.19C534.78 325.16 530.55 332.6 532.52 339.8L558.01 432.67L488.04 460.77L496.11 482.78Z" />
					<g id="&lt;Group&gt;">
						<path id="&lt;Path&gt;" class="shp30" d="M470.37 502.88L394.71 502.88L367.66 390.47L443.33 390.47L470.37 502.88Z" />
					</g>
					<path id="&lt;Path&gt;" class="shp31" d="M468.57 504.69L392.9 504.69L365.86 392.27L441.53 392.27L468.57 504.69Z" />
					<path id="&lt;Path&gt;" class="shp29" d="M425.81 407.33L387.94 407.33L385.8 400.15L423.67 400.15L425.81 407.33Z" />
					<g id="&lt;Group&gt;">
						<path id="&lt;Path&gt;" class="shp30" d="M418.45 404.21L394.51 404.21L393.84 401.02L417.78 401.02L418.45 404.21Z" />
					</g>
					<path id="&lt;Path&gt;" class="shp24" d="M380.53 453.25C385.21 456.59 389.65 458.41 393.84 458.71C400.12 459.16 400.59 472.62 393.84 476.54C387.08 480.46 382.58 480.85 380.53 476.54C378.48 472.23 374.51 449.85 380.53 453.25Z" />
					<path id="&lt;Path&gt;" class="shp25" d="M512.65 210.84C509.04 207.52 504.85 205.07 500.21 203.72C480.28 201.32 469.52 208.99 463.65 218.85C460.15 225.31 458.04 233.55 457.5 243.37C457.27 247.53 457.68 253.12 458.42 258.17C458.87 261.23 459.43 264.08 460.05 266.3C462.19 274.05 466.29 281.34 471.34 287.09C473.61 277.06 477.56 266.68 484.23 259.64C494.08 249.25 500.46 237.32 503.38 223.83C509.37 217.69 511.82 213.56 512.65 210.84Z" />
					<path id="&lt;Path&gt;" class="shp32" d="M499.83 220.28C496.91 233.77 490.53 245.7 480.69 256.09C465.92 271.66 464.45 303.62 465.18 311.76C465.67 317.18 467.4 324.25 470.37 332.96C460.18 326.72 453.58 315.47 450.59 299.21C446.09 274.82 451.95 257.19 452.85 243.24C453.75 229.3 457.66 188.77 508.44 202.5C512.09 204.74 509.22 210.67 499.83 220.28Z" />
					<path id="&lt;Path&gt;" class="shp32" d="M497.38 219.83C503.03 240.16 511.14 250.5 521.72 250.85C537.58 251.38 529.96 263.55 528.14 285.19C526.92 299.61 523.61 315.53 518.2 332.96C531.44 321.7 538.35 303.71 538.95 278.99C539.84 241.92 532.57 204.96 506.01 204.06C488.3 203.46 485.42 208.71 497.38 219.83Z" />
					<path id="&lt;Path&gt;" class="shp24" d="M532.63 258.84C532.23 265.99 528.94 271.64 526.1 271.5C523.27 271.37 521.29 265.46 521.68 258.31C522.07 251.16 524.5 248.92 527.34 249.06C530.17 249.19 533.02 251.69 532.63 258.84Z" />
				</g>
			</g>
			<g id="&lt;Group&gt;">
				<g id="&lt;Group&gt;" style="opacity: 0.169">
					<path id="&lt;Path&gt;" class="shp22" d="M303.93 945.98C303.93 950.92 246.99 954.93 176.74 954.93C106.49 954.93 49.54 950.92 49.54 945.98C49.54 941.04 106.49 937.04 176.74 937.04C246.99 937.04 303.93 941.04 303.93 945.98Z" />
				</g>
				<g id="&lt;Group&gt;">
					<g id="&lt;Group&gt;">
						<path id="&lt;Path&gt;" class="shp24" d="M124.13 252.98C125.58 279.41 143.8 300.01 164.82 299C180.59 298.25 191.15 285.66 195.98 268.21C197.59 262.4 198.87 252.12 198.51 245.51C197.05 219.09 180.59 202.31 159.56 203.31C138.54 204.32 122.67 226.56 124.13 252.98Z" />
						<g id="&lt;Group&gt;">
							<path id="&lt;Path&gt;" class="shp24" d="M137.31 330.63L170.31 328.1L166.46 277.82L133.46 280.35L137.31 330.63Z" />
						</g>
						<path id="&lt;Path&gt;" class="shp25" d="M146.3 207.03C151.05 206.36 154.8 207.81 159.41 206.97C161.44 206.59 164.06 205.3 167.06 203.73C182.77 206.3 194.78 219.5 197.84 239.22C197.55 239.21 197.26 239.19 196.98 239.16C187.85 238.16 174.87 232.77 164.05 231.22C159.94 230.64 146.06 229.22 144.57 236.32C142.63 245.53 135.02 240.34 133.32 246.85C131.63 253.35 137.72 261.19 136.92 265.5C136.39 268.37 134.07 269.73 129.95 269.58C133.01 259.9 132.17 253.92 127.44 251.62C125.42 250.64 124.53 252.66 124.4 256.21C124.28 255.15 124.19 254.07 124.13 252.98C123 232.51 132.28 214.55 146.3 207.03Z" />
						<path id="&lt;Path&gt;" class="shp25" d="M166.46 277.82L169.17 313.22C156.53 313.57 143.33 309.02 136.82 299.69C136.21 298.83 135.47 297.56 134.66 296.04L133.46 280.35L166.46 277.82Z" />
						<g id="&lt;Group&gt;">
							<path id="&lt;Path&gt;" class="shp32" d="M125.45 260.85C129.86 250.76 133.43 248.6 136.15 254.37C140.22 263.03 134.01 266.99 142.66 268.4C153.81 270.21 145.23 264.55 157.96 263.2C175.59 261.32 170.42 266.73 184.19 263.5C190.26 262.08 194.19 263.65 195.98 268.21C191.79 294.23 183.19 307.56 170.2 308.19C157.26 308.81 143.51 304.26 136.82 294.68C134.15 290.87 129.61 281.34 123.2 266.1L125.45 260.85Z" />
						</g>
						<path id="&lt;Path&gt;" class="shp32" d="M129.95 263.24C133.01 253.56 132.17 247.57 127.44 245.28C120.34 241.83 127.26 275.38 131.51 282.32C135.75 289.26 128.68 281.01 126.05 275.93C123.43 270.84 105.39 238.63 124.63 216.36C143.88 194.08 149.75 202.39 159.41 200.62C169.08 198.86 192 176.33 206.72 201.05C221.44 225.78 206.11 233.81 196.98 232.81C187.85 231.81 174.87 226.43 164.05 224.88C159.94 224.3 146.06 222.87 144.57 229.98C142.63 239.19 135.02 234 133.32 240.5C131.63 247.01 137.72 254.85 136.92 259.16C136.39 262.03 134.07 263.39 129.95 263.24Z" />
						<path id="&lt;Path&gt;" class="shp24" d="M240.67 573.94C242.78 586.99 245.23 597.79 248.01 606.35C252.19 619.2 243.68 638.19 232.48 640.79C225.02 642.52 223.23 629.2 227.13 600.84L225.6 582.98L240.67 573.94Z" />
						<path id="&lt;Path&gt;" class="shp24" d="M120.69 254.69C121.14 262.78 124.87 269.18 128.08 269.03C131.29 268.88 133.53 262.19 133.09 254.09C132.64 246 129.9 243.46 126.69 243.61C123.48 243.76 120.25 246.59 120.69 254.69Z" />
						<path id="&lt;Path&gt;" class="shp24" d="M210.94 384.24L197.52 523.47C194.9 550.63 170.76 570.54 143.59 567.92C119.22 565.57 100.71 545.89 99.04 522.26L89.04 382.74C86.63 349.05 111.99 319.77 145.68 317.36C179.38 314.95 208.65 340.31 211.06 374C211.3 377.35 211.23 381 210.94 384.24Z" />
						<path id="&lt;Path&gt;" class="shp24" d="M232.48 568.48L208.4 456.05L197.59 344.37L232.48 568.48Z" />
						<path id="&lt;Path&gt;" class="shp24" d="M196.66 491.09L238.65 694.79L238.99 696.47C239.29 697.92 239.4 699.44 239.34 700.85L229.48 918.48C229.06 927.84 221.13 935.08 211.77 934.66C202.85 934.26 195.86 926.98 195.58 918.21L189.2 700.45L189.89 706.51L134.65 506.01C129.97 489.02 139.94 471.45 156.93 466.77C173.92 462.09 191.49 472.07 196.17 489.06C196.35 489.7 196.52 490.44 196.66 491.09Z" />
						<path id="&lt;Path&gt;" class="shp29" d="M210.7 907.34C227 919.19 240.19 925.36 250.25 925.84C262.88 926.45 284.09 932.94 283.64 946.28C283.19 959.62 190.97 954.63 188.53 944.46C186.9 937.68 189.76 927.02 197.11 912.46L210.7 907.34Z" />
						<path id="&lt;Path&gt;" class="shp33" d="M171.38 316.72L184.2 352.83C158.48 445.64 145.91 491.53 146.5 490.51C147.39 488.98 121.03 350 121.08 348.04C121.12 346.74 125.64 336.89 134.67 318.48C150.36 325.6 162.59 325.01 171.38 316.72Z" />
						<path id="&lt;Path&gt;" class="shp24" d="M164.36 501.15L140.22 710.21L117.85 919.52C116.85 928.83 108.49 935.58 99.18 934.59C90.3 933.64 83.76 925.94 84.02 917.17L90.79 706.49C92.23 671.39 94.1 636.32 95.73 601.22L100.8 495.95C101.64 478.35 116.6 464.76 134.2 465.61C151.8 466.46 165.39 481.41 164.54 499.01C164.51 499.7 164.44 500.48 164.36 501.15Z" />
						<path id="&lt;Path&gt;" class="shp29" d="M115.2 912.58C135.99 940.44 129.4 954.37 95.43 954.37C55.7 954.37 52.55 940.44 85.96 912.58L113.52 895.41L115.2 912.58Z" />
						<path id="&lt;Path&gt;" class="shp31" d="M115.63 552.41L90.97 580.54L83.73 750.28L80.95 914.14L122.16 918.34L156.94 630.81L181.74 701.9L192.32 918.34L235.76 918.34C240.22 778.91 241.7 703.47 240.22 692.02C238.73 680.58 229.5 631.85 212.53 545.85L115.63 552.41Z" />
						<g id="&lt;Group&gt;" style="opacity: 0.149;mix-blend-mode: multiply">
							<path id="&lt;Path&gt;" class="shp29" d="M159.54 618.73L191.62 698.45L202.22 918.34L192.32 918.34L181.74 701.91L156.63 632.45L159.54 618.73Z" />
							<path id="&lt;Path&gt;" class="shp29" d="M83.73 750.28L90.97 580.54L115.63 552.41L120.64 552.07L100.7 575.15L93.45 747.6L90.66 914.07L122.28 917.34L122.16 918.34L80.95 914.14L83.73 750.28Z" />
						</g>
						<path id="&lt;Path&gt;" class="shp34" d="M151.09 329.41L165.66 421.61L152.19 482.41C133.55 469.24 124.53 461.08 125.15 457.93C125.76 454.77 127.23 443.76 129.54 424.9L147.18 328.94L151.09 329.41Z" />
						<path id="&lt;Path&gt;" class="shp34" d="M174.77 313.37C172.94 320.28 165.91 324.46 153.7 325.9L162.57 339.55C171.15 337.04 178.61 331.41 184.95 322.66L174.77 313.37Z" />
						<path id="&lt;Path&gt;" class="shp35" d="M156.21 329.25L170.78 421.45L157.31 482.25C138.67 469.08 129.65 460.92 130.27 457.77C130.88 454.61 132.35 443.6 134.67 424.74L152.3 328.78L156.21 329.25Z" />
						<path id="&lt;Path&gt;" class="shp34" d="M130.73 315.48C133.6 322.17 142 325.6 155.92 325.79L147.54 340.27C137.58 338.65 128.51 333.82 120.35 325.76L130.73 315.48Z" />
						<path id="&lt;Path&gt;" class="shp36" d="M90.66 591.45L90.97 584.11L115.63 555.98L212.53 549.42C214.41 558.93 216.62 570.23 219.18 583.34C202.38 586.18 163.15 591.41 160.25 578.89C156.5 585.5 150.35 588.88 141.81 589.03C131.69 589.2 102.49 590.79 90.66 591.45Z" />
						<path id="&lt;Path&gt;" class="shp29" d="M226.74 573.2C184.88 581.8 162.72 580.78 160.25 570.14C156.5 576.75 150.35 580.13 141.81 580.27C133.27 580.42 114.52 581.32 85.58 582.98C89.4 475.92 89.91 417.25 87.12 406.97C84.32 396.68 99.73 406.54 133.35 436.52L174.33 486.12L226.85 503.92L230.59 571.97L226.74 573.2Z" />
						<path id="&lt;Path&gt;" class="shp24" d="M79.84 338.28L42.88 444.38L42.55 445.32C41.36 448.74 41.43 452.3 42.52 455.47L89.65 593.65C92.1 600.83 99.9 604.66 107.08 602.22C114.07 599.83 117.88 592.32 115.8 585.3L74.04 445.4L73.68 456.49L118.91 353.64C123.58 343.02 118.76 330.63 108.14 325.96C97.52 321.29 85.12 326.11 80.45 336.73C80.23 337.23 80.02 337.77 79.84 338.28Z" />
						<path id="&lt;Path&gt;" class="shp25" d="M240.67 573.94C242.08 582.66 243.8 590.94 245.84 598.8C236.81 601.6 230.46 603.95 226.59 605.48C226.78 603.59 226.96 602.04 227.13 600.84L225.6 582.98L240.67 573.94Z" />
						<path id="&lt;Path&gt;" class="shp25" d="M42.55 445.32L42.88 444.38L76.04 349.18C81.68 337.83 85.86 332.08 88.59 331.94L112.72 328.74C120.03 334.53 122.84 344.71 118.91 353.64L75.87 451.52L78.66 460.87L78.49 461.34L82.23 472.82L115.8 585.3C115.9 585.66 115.98 586.02 116.06 586.38C107.02 590.19 97.45 593.7 90.75 596.06C90.31 595.31 89.94 594.51 89.65 593.65L42.52 455.47C41.43 452.3 41.36 448.74 42.55 445.32Z" />
						<path id="&lt;Path&gt;" class="shp29" d="M171.51 319.06C171.32 365.46 165.42 410.09 153.81 452.95C140.85 381.23 134.47 336.4 134.67 318.48L88.59 324.6C85.8 324.73 81.53 330.67 75.76 342.4C69.99 354.14 57.27 389 37.6 446.97C36.42 450.94 37.9 457.64 42.05 467.07C46.19 476.51 59.49 518.06 81.94 591.73C95.3 587.36 107.59 582.74 118.81 577.85L78.49 454L89.41 423.39L205.84 522.64L221.98 598.14C228.5 595.07 238.76 591.5 252.75 587.45C240 527.9 232.81 483.32 231.18 453.71C228.74 409.29 227.19 342.96 221.25 333.86C215.31 324.77 212.94 319.03 171.51 319.06Z" />
						<path id="&lt;Path&gt;" class="shp34" d="M154.59 479.09C154.7 481.06 156.5 482.58 158.62 482.48C160.73 482.38 162.36 480.7 162.25 478.72C162.14 476.75 160.34 475.23 158.22 475.33C156.11 475.43 154.48 477.11 154.59 479.09Z" />
						<path id="&lt;Path&gt;" class="shp34" d="M76.67 559.52C76.78 561.49 78.58 563.01 80.7 562.91C82.81 562.81 84.44 561.13 84.33 559.15C84.22 557.18 82.42 555.66 80.31 555.76C78.19 555.86 76.57 557.54 76.67 559.52Z" />
						<path id="&lt;Path&gt;" class="shp34" d="M80.51 577.71C80.62 579.68 82.42 581.2 84.53 581.1C86.65 581 88.27 579.31 88.16 577.34C88.06 575.36 86.25 573.84 84.14 573.95C82.02 574.05 80.4 575.73 80.51 577.71Z" />
						<path id="&lt;Path&gt;" class="shp34" d="M156.15 507.37C156.25 509.34 158.06 510.86 160.17 510.76C162.29 510.66 163.91 508.98 163.8 507C163.69 505.03 161.89 503.51 159.78 503.61C157.66 503.71 156.04 505.39 156.15 507.37Z" />
						<path id="&lt;Path&gt;" class="shp33" d="M170.44 308.91C171.39 315.69 165.76 319.8 153.55 321.24L162.41 334.9C170.99 332.39 178.45 326.76 184.79 318.01L170.44 308.91Z" />
						<path id="&lt;Path&gt;" class="shp33" d="M133.87 309.88C134.54 317.2 141.84 320.95 155.76 321.13L147.38 335.62C137.42 334 128.36 329.16 120.19 321.1L133.87 309.88Z" />
						<path id="&lt;Path&gt;" class="shp37" d="M148.89 328.95C149.09 332.58 151.53 335.42 154.33 335.28C157.14 335.15 159.26 332.09 159.06 328.46C158.86 324.83 156.42 321.99 153.61 322.13C150.8 322.26 148.69 325.31 148.89 328.95Z" />
						<path id="&lt;Path&gt;" class="shp31" d="M117.9 581.43C113.98 591.42 104.65 597.46 89.9 599.55L91.67 620.24L131.72 599.54L117.9 581.43Z" />
					</g>
					<path id="&lt;Path&gt;" class="shp34" d="M125.12 387.74L102.72 387.74C101.81 389.53 102.24 391.16 104.03 392.65C106.71 394.88 111.09 398.23 113.47 398.23C115.85 398.23 119.39 396.67 123.2 393.32C125.74 391.09 126.38 389.23 125.12 387.74Z" />
				</g>
			</g>
		</g>
	</g>
</svg>