<svg id="visual" viewBox="0 0 1076 250" width="1076" height="250" xmlns="http://www.w3.org/2000/svg" xmlns:xlink="http://www.w3.org/1999/xlink" version="1.1"><rect x="0" y="0" width="1076" height="250" fill="#3282c1"></rect><defs><linearGradient id="grad1_0" x1="76.8%" y1="0%" x2="100%" y2="100%"><stop offset="-36.08%" stop-color="#ffffff" stop-opacity="1"></stop><stop offset="136.07999999999998%" stop-color="#ffffff" stop-opacity="1"></stop></linearGradient></defs><defs><linearGradient id="grad1_1" x1="76.8%" y1="0%" x2="100%" y2="100%"><stop offset="-36.08%" stop-color="#ffffff" stop-opacity="1"></stop><stop offset="136.07999999999998%" stop-color="#a4bee0" stop-opacity="1"></stop></linearGradient></defs><defs><linearGradient id="grad1_2" x1="76.8%" y1="0%" x2="100%" y2="100%"><stop offset="-36.08%" stop-color="#3282c1" stop-opacity="1"></stop><stop offset="136.07999999999998%" stop-color="#a4bee0" stop-opacity="1"></stop></linearGradient></defs><defs><linearGradient id="grad2_0" x1="0%" y1="0%" x2="23.2%" y2="100%"><stop offset="-36.08%" stop-color="#ffffff" stop-opacity="1"></stop><stop offset="136.07999999999998%" stop-color="#ffffff" stop-opacity="1"></stop></linearGradient></defs><defs><linearGradient id="grad2_1" x1="0%" y1="0%" x2="23.2%" y2="100%"><stop offset="-36.08%" stop-color="#a4bee0" stop-opacity="1"></stop><stop offset="136.07999999999998%" stop-color="#ffffff" stop-opacity="1"></stop></linearGradient></defs><defs><linearGradient id="grad2_2" x1="0%" y1="0%" x2="23.2%" y2="100%"><stop offset="-36.08%" stop-color="#a4bee0" stop-opacity="1"></stop><stop offset="136.07999999999998%" stop-color="#3282c1" stop-opacity="1"></stop></linearGradient></defs><g transform="translate(1076, 0)"><path d="M0 136C-36.4 151.7 -72.9 167.3 -87.5 151.6C-102.1 135.8 -94.9 88.5 -100.5 58C-106.1 27.5 -124.5 13.7 -143 0L0 0Z" fill="#72a0d1"></path><path d="M0 90.7C-24.3 101.1 -48.6 111.6 -58.3 101C-68.1 90.5 -63.2 59 -67 38.7C-70.7 18.3 -83 9.2 -95.3 0L0 0Z" fill="#d2def0"></path><path d="M0 45.3C-12.1 50.6 -24.3 55.8 -29.2 50.5C-34 45.3 -31.6 29.5 -33.5 19.3C-35.4 9.2 -41.5 4.6 -47.7 0L0 0Z" fill="#ffffff"></path></g><g transform="translate(0, 250)"><path d="M0 -168C13 -136.7 26 -105.3 55.5 -96.1C85 -86.9 131.1 -99.8 151.6 -87.5C172.1 -75.2 167 -37.6 162 0L0 0Z" fill="#72a0d1"></path><path d="M0 -112C8.7 -91.1 17.3 -70.2 37 -64.1C56.7 -57.9 87.4 -66.6 101 -58.3C114.7 -50.1 111.4 -25.1 108 0L0 0Z" fill="#d2def0"></path><path d="M0 -56C4.3 -45.6 8.7 -35.1 18.5 -32C28.3 -29 43.7 -33.3 50.5 -29.2C57.4 -25.1 55.7 -12.5 54 0L0 0Z" fill="#ffffff"></path></g></svg>