<svg id="visual" viewBox="0 0 1076 250" width="1076" height="250" xmlns="http://www.w3.org/2000/svg" xmlns:xlink="http://www.w3.org/1999/xlink" version="1.1"><rect x="0" y="0" width="1076" height="250" fill="#3282c1"></rect><defs><linearGradient id="grad1_0" x1="76.8%" y1="0%" x2="100%" y2="100%"><stop offset="-36.08%" stop-color="#d5ffb9" stop-opacity="1"></stop><stop offset="136.07999999999998%" stop-color="#d5ffb9" stop-opacity="1"></stop></linearGradient></defs><defs><linearGradient id="grad1_1" x1="76.8%" y1="0%" x2="100%" y2="100%"><stop offset="-36.08%" stop-color="#d5ffb9" stop-opacity="1"></stop><stop offset="136.07999999999998%" stop-color="#a7f2bb" stop-opacity="1"></stop></linearGradient></defs><defs><linearGradient id="grad1_2" x1="76.8%" y1="0%" x2="100%" y2="100%"><stop offset="-36.08%" stop-color="#79e3c1" stop-opacity="1"></stop><stop offset="136.07999999999998%" stop-color="#a7f2bb" stop-opacity="1"></stop></linearGradient></defs><defs><linearGradient id="grad1_3" x1="76.8%" y1="0%" x2="100%" y2="100%"><stop offset="-36.08%" stop-color="#79e3c1" stop-opacity="1"></stop><stop offset="136.07999999999998%" stop-color="#48d2c8" stop-opacity="1"></stop></linearGradient></defs><defs><linearGradient id="grad1_4" x1="76.8%" y1="0%" x2="100%" y2="100%"><stop offset="-36.08%" stop-color="#00c0ce" stop-opacity="1"></stop><stop offset="136.07999999999998%" stop-color="#48d2c8" stop-opacity="1"></stop></linearGradient></defs><defs><linearGradient id="grad1_5" x1="76.8%" y1="0%" x2="100%" y2="100%"><stop offset="-36.08%" stop-color="#00c0ce" stop-opacity="1"></stop><stop offset="136.07999999999998%" stop-color="#00add0" stop-opacity="1"></stop></linearGradient></defs><defs><linearGradient id="grad1_6" x1="76.8%" y1="0%" x2="100%" y2="100%"><stop offset="-36.08%" stop-color="#0098cc" stop-opacity="1"></stop><stop offset="136.07999999999998%" stop-color="#00add0" stop-opacity="1"></stop></linearGradient></defs><defs><linearGradient id="grad1_7" x1="76.8%" y1="0%" x2="100%" y2="100%"><stop offset="-36.08%" stop-color="#0098cc" stop-opacity="1"></stop><stop offset="136.07999999999998%" stop-color="#3282c1" stop-opacity="1"></stop></linearGradient></defs><defs><linearGradient id="grad2_0" x1="0%" y1="0%" x2="23.2%" y2="100%"><stop offset="-36.08%" stop-color="#d5ffb9" stop-opacity="1"></stop><stop offset="136.07999999999998%" stop-color="#d5ffb9" stop-opacity="1"></stop></linearGradient></defs><defs><linearGradient id="grad2_1" x1="0%" y1="0%" x2="23.2%" y2="100%"><stop offset="-36.08%" stop-color="#a7f2bb" stop-opacity="1"></stop><stop offset="136.07999999999998%" stop-color="#d5ffb9" stop-opacity="1"></stop></linearGradient></defs><defs><linearGradient id="grad2_2" x1="0%" y1="0%" x2="23.2%" y2="100%"><stop offset="-36.08%" stop-color="#a7f2bb" stop-opacity="1"></stop><stop offset="136.07999999999998%" stop-color="#79e3c1" stop-opacity="1"></stop></linearGradient></defs><defs><linearGradient id="grad2_3" x1="0%" y1="0%" x2="23.2%" y2="100%"><stop offset="-36.08%" stop-color="#48d2c8" stop-opacity="1"></stop><stop offset="136.07999999999998%" stop-color="#79e3c1" stop-opacity="1"></stop></linearGradient></defs><defs><linearGradient id="grad2_4" x1="0%" y1="0%" x2="23.2%" y2="100%"><stop offset="-36.08%" stop-color="#48d2c8" stop-opacity="1"></stop><stop offset="136.07999999999998%" stop-color="#00c0ce" stop-opacity="1"></stop></linearGradient></defs><defs><linearGradient id="grad2_5" x1="0%" y1="0%" x2="23.2%" y2="100%"><stop offset="-36.08%" stop-color="#00add0" stop-opacity="1"></stop><stop offset="136.07999999999998%" stop-color="#00c0ce" stop-opacity="1"></stop></linearGradient></defs><defs><linearGradient id="grad2_6" x1="0%" y1="0%" x2="23.2%" y2="100%"><stop offset="-36.08%" stop-color="#00add0" stop-opacity="1"></stop><stop offset="136.07999999999998%" stop-color="#0098cc" stop-opacity="1"></stop></linearGradient></defs><defs><linearGradient id="grad2_7" x1="0%" y1="0%" x2="23.2%" y2="100%"><stop offset="-36.08%" stop-color="#3282c1" stop-opacity="1"></stop><stop offset="136.07999999999998%" stop-color="#0098cc" stop-opacity="1"></stop></linearGradient></defs><g transform="translate(1076, 0)"><path d="M0 180C-41.2 182 -82.5 184.1 -92.5 160.2C-102.5 136.3 -81.3 86.5 -96.1 55.5C-110.9 24.5 -161.7 12.2 -212.5 0L0 0Z" fill="#178dc8"></path><path d="M0 157.5C-36.1 159.3 -72.2 161.1 -80.9 140.2C-89.7 119.3 -71.2 75.7 -84.1 48.6C-97.1 21.4 -141.5 10.7 -185.9 0L0 0Z" fill="#00a2cf"></path><path d="M0 135C-30.9 136.5 -61.9 138.1 -69.4 120.2C-76.9 102.3 -61 64.9 -72.1 41.6C-83.2 18.4 -121.3 9.2 -159.4 0L0 0Z" fill="#00b6d0"></path><path d="M0 112.5C-25.8 113.8 -51.5 115.1 -57.8 100.1C-64.1 85.2 -50.8 54.1 -60.1 34.7C-69.3 15.3 -101.1 7.6 -132.8 0L0 0Z" fill="#2bc9cc"></path><path d="M0 90C-20.6 91 -41.2 92 -46.2 80.1C-51.3 68.2 -40.7 43.3 -48.1 27.8C-55.5 12.2 -80.9 6.1 -106.2 0L0 0Z" fill="#61dbc5"></path><path d="M0 67.5C-15.5 68.3 -30.9 69 -34.7 60.1C-38.4 51.1 -30.5 32.4 -36 20.8C-41.6 9.2 -60.6 4.6 -79.7 0L0 0Z" fill="#90eabe"></path><path d="M0 45C-10.3 45.5 -20.6 46 -23.1 40.1C-25.6 34.1 -20.3 21.6 -24 13.9C-27.7 6.1 -40.4 3.1 -53.1 0L0 0Z" fill="#bef9b9"></path><path d="M0 22.5C-5.2 22.8 -10.3 23 -11.6 20C-12.8 17 -10.2 10.8 -12 6.9C-13.9 3.1 -20.2 1.5 -26.6 0L0 0Z" fill="#d5ffb9"></path></g><g transform="translate(0, 250)"><path d="M0 -212.5C38.5 -200 77 -187.4 91.5 -158.5C106 -129.5 96.5 -84.2 95.3 -55C94 -25.8 101 -12.9 108 0L0 0Z" fill="#178dc8"></path><path d="M0 -185.9C33.7 -175 67.4 -164 80.1 -138.7C92.8 -113.3 84.4 -73.6 83.4 -48.1C82.3 -22.6 88.4 -11.3 94.5 0L0 0Z" fill="#00a2cf"></path><path d="M0 -159.4C28.9 -150 57.7 -140.6 68.6 -118.9C79.5 -97.1 72.4 -63.1 71.4 -41.3C70.5 -19.4 75.8 -9.7 81 0L0 0Z" fill="#00b6d0"></path><path d="M0 -132.8C24.1 -125 48.1 -117.1 57.2 -99.1C66.3 -81 60.3 -52.6 59.5 -34.4C58.8 -16.2 63.1 -8.1 67.5 0L0 0Z" fill="#2bc9cc"></path><path d="M0 -106.2C19.2 -100 38.5 -93.7 45.7 -79.2C53 -64.8 48.3 -42.1 47.6 -27.5C47 -12.9 50.5 -6.5 54 0L0 0Z" fill="#61dbc5"></path><path d="M0 -79.7C14.4 -75 28.9 -70.3 34.3 -59.4C39.8 -48.6 36.2 -31.6 35.7 -20.6C35.3 -9.7 37.9 -4.8 40.5 0L0 0Z" fill="#90eabe"></path><path d="M0 -53.1C9.6 -50 19.2 -46.9 22.9 -39.6C26.5 -32.4 24.1 -21 23.8 -13.8C23.5 -6.5 25.3 -3.2 27 0L0 0Z" fill="#bef9b9"></path><path d="M0 -26.6C4.8 -25 9.6 -23.4 11.4 -19.8C13.3 -16.2 12.1 -10.5 11.9 -6.9C11.8 -3.2 12.6 -1.6 13.5 0L0 0Z" fill="#d5ffb9"></path></g></svg>