<svg xmlns="http://www.w3.org/2000/svg" version="1.1" xmlns:xlink="http://www.w3.org/1999/xlink" xmlns:svgjs="http://svgjs.com/svgjs" width="1140" height="250" preserveAspectRatio="none" viewBox="0 0 1140 250"><g mask="url(&quot;#SvgjsMask1289&quot;)" fill="none"><g mask="url(&quot;#SvgjsMask1291&quot;)"><path d="M1092.5 123.5L1073.5 123.5M940.5 104.5L921.5 123.5L902.5 142.5M883.5 123.5L864.5 142.5L845.5 142.5L826.5 142.5M1035.5 104.5L1016.5 104.5L997.5 104.5L978.5 104.5M826.5 123.5L807.5 104.5L788.5 104.5L769.5 104.5M1168.5 123.5L1149.5 123.5L1130.5 123.5L1111.5 123.5L1092.5 123.5L1073.5 104.5L1054.5 104.5L1035.5 104.5L1016.5 123.5L997.5 123.5L978.5 123.5L959.5 123.5L940.5 104.5L921.5 104.5L902.5 123.5L883.5 123.5L864.5 123.5L845.5 123.5L826.5 123.5L807.5 123.5L788.5 123.5L769.5 123.5" stroke="url(#SvgjsLinearGradient1290)" stroke-width="3.17"></path><path d="M764.75 123.5 a4.75 4.75 0 1 0 9.5 0 a4.75 4.75 0 1 0 -9.5 0zM1068.75 123.5 a4.75 4.75 0 1 0 9.5 0 a4.75 4.75 0 1 0 -9.5 0zM897.75 142.5 a4.75 4.75 0 1 0 9.5 0 a4.75 4.75 0 1 0 -9.5 0zM821.75 142.5 a4.75 4.75 0 1 0 9.5 0 a4.75 4.75 0 1 0 -9.5 0zM973.75 104.5 a4.75 4.75 0 1 0 9.5 0 a4.75 4.75 0 1 0 -9.5 0zM764.75 104.5 a4.75 4.75 0 1 0 9.5 0 a4.75 4.75 0 1 0 -9.5 0z" fill="url(#SvgjsLinearGradient1290)"></path><path d="M1016.5 180.5L997.5 161.5L978.5 161.5L959.5 161.5M1035.5 161.5L1016.5 161.5M1073.5 161.5L1054.5 142.5M1168.5 142.5L1149.5 142.5L1130.5 142.5L1111.5 142.5L1092.5 142.5L1073.5 161.5L1054.5 161.5L1035.5 161.5L1016.5 180.5L997.5 180.5L978.5 180.5L959.5 180.5" stroke="url(#SvgjsLinearGradient1290)" stroke-width="3.17"></path><path d="M954.75 180.5 a4.75 4.75 0 1 0 9.5 0 a4.75 4.75 0 1 0 -9.5 0zM954.75 161.5 a4.75 4.75 0 1 0 9.5 0 a4.75 4.75 0 1 0 -9.5 0zM1011.75 161.5 a4.75 4.75 0 1 0 9.5 0 a4.75 4.75 0 1 0 -9.5 0zM1049.75 142.5 a4.75 4.75 0 1 0 9.5 0 a4.75 4.75 0 1 0 -9.5 0z" fill="url(#SvgjsLinearGradient1290)"></path><path d="M921.5 66.5L902.5 85.5L883.5 85.5L864.5 85.5L845.5 85.5L826.5 85.5L807.5 85.5M807.5 66.5L788.5 66.5L769.5 66.5L750.5 66.5L731.5 66.5M1016.5 85.5L997.5 66.5L978.5 66.5M959.5 66.5L940.5 85.5L921.5 85.5M978.5 85.5L959.5 85.5M1111.5 104.5L1092.5 104.5M1168.5 104.5L1149.5 104.5L1130.5 104.5L1111.5 104.5L1092.5 85.5L1073.5 85.5L1054.5 85.5L1035.5 85.5L1016.5 85.5L997.5 85.5L978.5 85.5L959.5 66.5L940.5 66.5L921.5 66.5L902.5 66.5L883.5 66.5L864.5 66.5L845.5 66.5L826.5 66.5L807.5 66.5L788.5 85.5L769.5 85.5L750.5 85.5L731.5 104.5" stroke="url(#SvgjsLinearGradient1290)" stroke-width="3.17"></path><path d="M726.75 104.5 a4.75 4.75 0 1 0 9.5 0 a4.75 4.75 0 1 0 -9.5 0zM802.75 85.5 a4.75 4.75 0 1 0 9.5 0 a4.75 4.75 0 1 0 -9.5 0zM726.75 66.5 a4.75 4.75 0 1 0 9.5 0 a4.75 4.75 0 1 0 -9.5 0zM973.75 66.5 a4.75 4.75 0 1 0 9.5 0 a4.75 4.75 0 1 0 -9.5 0zM916.75 85.5 a4.75 4.75 0 1 0 9.5 0 a4.75 4.75 0 1 0 -9.5 0zM954.75 85.5 a4.75 4.75 0 1 0 9.5 0 a4.75 4.75 0 1 0 -9.5 0zM1087.75 104.5 a4.75 4.75 0 1 0 9.5 0 a4.75 4.75 0 1 0 -9.5 0z" fill="url(#SvgjsLinearGradient1290)"></path><path d="M921.5 199.5L902.5 180.5L883.5 180.5M940.5 199.5L921.5 180.5L902.5 161.5L883.5 161.5M883.5 199.5L864.5 218.5L845.5 218.5L826.5 218.5L807.5 218.5M1168.5 161.5L1149.5 161.5L1130.5 161.5L1111.5 161.5L1092.5 161.5L1073.5 180.5L1054.5 180.5L1035.5 180.5L1016.5 199.5L997.5 199.5L978.5 199.5L959.5 199.5L940.5 199.5L921.5 199.5L902.5 199.5L883.5 199.5L864.5 199.5" stroke="url(#SvgjsLinearGradient1290)" stroke-width="3.17"></path><path d="M859.75 199.5 a4.75 4.75 0 1 0 9.5 0 a4.75 4.75 0 1 0 -9.5 0zM878.75 180.5 a4.75 4.75 0 1 0 9.5 0 a4.75 4.75 0 1 0 -9.5 0zM878.75 161.5 a4.75 4.75 0 1 0 9.5 0 a4.75 4.75 0 1 0 -9.5 0zM802.75 218.5 a4.75 4.75 0 1 0 9.5 0 a4.75 4.75 0 1 0 -9.5 0z" fill="url(#SvgjsLinearGradient1290)"></path><path d="M1035.5 66.5L1016.5 66.5M1168.5 85.5L1149.5 85.5L1130.5 85.5L1111.5 85.5L1092.5 66.5L1073.5 66.5L1054.5 66.5L1035.5 66.5L1016.5 47.5L997.5 47.5L978.5 47.5L959.5 47.5L940.5 47.5L921.5 47.5L902.5 47.5L883.5 47.5L864.5 47.5L845.5 47.5L826.5 47.5L807.5 47.5" stroke="url(#SvgjsLinearGradient1290)" stroke-width="3.17"></path><path d="M802.75 47.5 a4.75 4.75 0 1 0 9.5 0 a4.75 4.75 0 1 0 -9.5 0zM1011.75 66.5 a4.75 4.75 0 1 0 9.5 0 a4.75 4.75 0 1 0 -9.5 0z" fill="url(#SvgjsLinearGradient1290)"></path><path d="M1054.5 199.5L1035.5 218.5M1130.5 180.5L1111.5 199.5L1092.5 199.5L1073.5 218.5M1149.5 180.5L1130.5 199.5L1111.5 218.5L1092.5 218.5M1168.5 180.5L1149.5 180.5L1130.5 180.5L1111.5 180.5L1092.5 180.5L1073.5 199.5L1054.5 199.5L1035.5 199.5L1016.5 218.5L997.5 218.5L978.5 218.5L959.5 218.5L940.5 218.5L921.5 218.5L902.5 218.5" stroke="url(#SvgjsLinearGradient1290)" stroke-width="3.17"></path><path d="M897.75 218.5 a4.75 4.75 0 1 0 9.5 0 a4.75 4.75 0 1 0 -9.5 0zM1030.75 218.5 a4.75 4.75 0 1 0 9.5 0 a4.75 4.75 0 1 0 -9.5 0zM1068.75 218.5 a4.75 4.75 0 1 0 9.5 0 a4.75 4.75 0 1 0 -9.5 0zM1087.75 218.5 a4.75 4.75 0 1 0 9.5 0 a4.75 4.75 0 1 0 -9.5 0z" fill="url(#SvgjsLinearGradient1290)"></path><path d="M1149.5 66.5L1130.5 47.5L1111.5 47.5M1168.5 66.5L1149.5 66.5L1130.5 66.5L1111.5 66.5L1092.5 47.5L1073.5 47.5L1054.5 47.5" stroke="url(#SvgjsLinearGradient1290)" stroke-width="3.17"></path><path d="M1049.75 47.5 a4.75 4.75 0 1 0 9.5 0 a4.75 4.75 0 1 0 -9.5 0zM1106.75 47.5 a4.75 4.75 0 1 0 9.5 0 a4.75 4.75 0 1 0 -9.5 0z" fill="url(#SvgjsLinearGradient1290)"></path></g></g><defs><mask id="SvgjsMask1289"><rect width="1140" height="250" fill="#ffffff"></rect></mask><linearGradient x1="581.4" y1="125" x2="1140" y2="125" gradientUnits="userSpaceOnUse" id="SvgjsLinearGradient1290"><stop stop-color="#3a7cc3" offset="0"></stop><stop stop-color="rgba(221, 17, 200, 1)" offset="1"></stop></linearGradient><mask id="SvgjsMask1291"><rect width="1140" height="250" fill="white"></rect><path d="M767.12 123.5 a2.38 2.38 0 1 0 4.76 0 a2.38 2.38 0 1 0 -4.76 0zM1071.12 123.5 a2.38 2.38 0 1 0 4.76 0 a2.38 2.38 0 1 0 -4.76 0zM900.12 142.5 a2.38 2.38 0 1 0 4.76 0 a2.38 2.38 0 1 0 -4.76 0zM824.12 142.5 a2.38 2.38 0 1 0 4.76 0 a2.38 2.38 0 1 0 -4.76 0zM976.12 104.5 a2.38 2.38 0 1 0 4.76 0 a2.38 2.38 0 1 0 -4.76 0zM767.12 104.5 a2.38 2.38 0 1 0 4.76 0 a2.38 2.38 0 1 0 -4.76 0z" fill="black"></path><path d="M957.12 180.5 a2.38 2.38 0 1 0 4.76 0 a2.38 2.38 0 1 0 -4.76 0zM957.12 161.5 a2.38 2.38 0 1 0 4.76 0 a2.38 2.38 0 1 0 -4.76 0zM1014.12 161.5 a2.38 2.38 0 1 0 4.76 0 a2.38 2.38 0 1 0 -4.76 0zM1052.12 142.5 a2.38 2.38 0 1 0 4.76 0 a2.38 2.38 0 1 0 -4.76 0z" fill="black"></path><path d="M729.12 104.5 a2.38 2.38 0 1 0 4.76 0 a2.38 2.38 0 1 0 -4.76 0zM805.12 85.5 a2.38 2.38 0 1 0 4.76 0 a2.38 2.38 0 1 0 -4.76 0zM729.12 66.5 a2.38 2.38 0 1 0 4.76 0 a2.38 2.38 0 1 0 -4.76 0zM976.12 66.5 a2.38 2.38 0 1 0 4.76 0 a2.38 2.38 0 1 0 -4.76 0zM919.12 85.5 a2.38 2.38 0 1 0 4.76 0 a2.38 2.38 0 1 0 -4.76 0zM957.12 85.5 a2.38 2.38 0 1 0 4.76 0 a2.38 2.38 0 1 0 -4.76 0zM1090.12 104.5 a2.38 2.38 0 1 0 4.76 0 a2.38 2.38 0 1 0 -4.76 0z" fill="black"></path><path d="M862.12 199.5 a2.38 2.38 0 1 0 4.76 0 a2.38 2.38 0 1 0 -4.76 0zM881.12 180.5 a2.38 2.38 0 1 0 4.76 0 a2.38 2.38 0 1 0 -4.76 0zM881.12 161.5 a2.38 2.38 0 1 0 4.76 0 a2.38 2.38 0 1 0 -4.76 0zM805.12 218.5 a2.38 2.38 0 1 0 4.76 0 a2.38 2.38 0 1 0 -4.76 0z" fill="black"></path><path d="M805.12 47.5 a2.38 2.38 0 1 0 4.76 0 a2.38 2.38 0 1 0 -4.76 0zM1014.12 66.5 a2.38 2.38 0 1 0 4.76 0 a2.38 2.38 0 1 0 -4.76 0z" fill="black"></path><path d="M900.12 218.5 a2.38 2.38 0 1 0 4.76 0 a2.38 2.38 0 1 0 -4.76 0zM1033.12 218.5 a2.38 2.38 0 1 0 4.76 0 a2.38 2.38 0 1 0 -4.76 0zM1071.12 218.5 a2.38 2.38 0 1 0 4.76 0 a2.38 2.38 0 1 0 -4.76 0zM1090.12 218.5 a2.38 2.38 0 1 0 4.76 0 a2.38 2.38 0 1 0 -4.76 0z" fill="black"></path><path d="M1052.12 47.5 a2.38 2.38 0 1 0 4.76 0 a2.38 2.38 0 1 0 -4.76 0zM1109.12 47.5 a2.38 2.38 0 1 0 4.76 0 a2.38 2.38 0 1 0 -4.76 0z" fill="black"></path></mask></defs></svg>