<?xml version="1.0" encoding="utf-8"?><svg xmlns="http://www.w3.org/2000/svg" xmlns:xlink="http://www.w3.org/1999/xlink" width="1536" height="731" preserveAspectRatio="xMidYMid" viewBox="0 0 1536 731" style="z-index:1;margin-right:-2px;display:block;background-repeat-y:initial;background-repeat-x:initial;background-color:rgb(255, 255, 255);animation-play-state:paused" ><g transform="translate(768,365.5) scale(1,1) translate(-768,-365.5)" style="transform:matrix(1, 0, 0, 1, 0, 0);animation-play-state:paused" ><linearGradient id="lg-0.2898211189136033" x1="0" x2="1" y1="0" y2="0" style="animation-play-state:paused" ><stop stop-color="#ff00ff" offset="0" style="animation-play-state:paused" ></stop>

  
<stop stop-color="#00ffff" offset="1" style="animation-play-state:paused" ></stop></linearGradient>
<path d="M 0 0 L 0 640.485 Q 153.6 674.235 307.2 635.657 T 614.4 556.358 T 921.6 427.719 T 1228.8 399.277 T 1536 347.776 L 1536 0 Z" fill="url(#lg-0.2898211189136033)" opacity="0.4" style="opacity:0.4;animation-play-state:paused" ></path>
<path d="M 0 0 L 0 634.984 Q 153.6 603.571 307.2 578.788 T 614.4 522.661 T 921.6 459.578 T 1228.8 373.46 T 1536 275.041 L 1536 0 Z" fill="url(#lg-0.2898211189136033)" opacity="0.4" style="opacity:0.4;animation-play-state:paused" ></path>
<path d="M 0 0 L 0 697.894 Q 153.6 634.275 307.2 615.728 T 614.4 475.732 T 921.6 471.221 T 1228.8 392.163 T 1536 247.393 L 1536 0 Z" fill="url(#lg-0.2898211189136033)" opacity="0.4" style="opacity:0.4;animation-play-state:paused" ></path>
<path d="M 0 0 L 0 706.091 Q 153.6 604.611 307.2 576.67 T 614.4 574.662 T 921.6 480.817 T 1228.8 364.328 T 1536 350.701 L 1536 0 Z" fill="url(#lg-0.2898211189136033)" opacity="0.4" style="opacity:0.4;animation-play-state:paused" ></path>
<path d="M 0 0 L 0 618.242 Q 153.6 633.253 307.2 597.912 T 614.4 511.833 T 921.6 454.569 T 1228.8 381.389 T 1536 296.922 L 1536 0 Z" fill="url(#lg-0.2898211189136033)" opacity="0.4" style="opacity:0.4;animation-play-state:paused" ></path></g></svg>