<svg id="visual" viewBox="0 0 1080 400" width="1080" height="400" xmlns="http://www.w3.org/2000/svg" xmlns:xlink="http://www.w3.org/1999/xlink" version="1.1"><path d="M0 70L36 85.7C72 101.3 144 132.7 216 137.7C288 142.7 360 121.3 432 109.5C504 97.7 576 95.3 648 98.2C720 101 792 109 864 131.8C936 154.7 1008 192.3 1044 211.2L1080 230L1080 401L1044 401C1008 401 936 401 864 401C792 401 720 401 648 401C576 401 504 401 432 401C360 401 288 401 216 401C144 401 72 401 36 401L0 401Z" fill="#141414" stroke-linecap="round" stroke-linejoin="miter"></path></svg>