<svg id="visual" viewBox="0 0 1080 50" width="1080" height="50" xmlns="http://www.w3.org/2000/svg" xmlns:xlink="http://www.w3.org/1999/xlink" version="1.1"><path d="M0 30L36 25C72 20 144 10 216 7.2C288 4.3 360 8.7 432 16.5C504 24.3 576 35.7 648 37.8C720 40 792 33 864 28C936 23 1008 20 1044 18.5L1080 17L1080 51L1044 51C1008 51 936 51 864 51C792 51 720 51 648 51C576 51 504 51 432 51C360 51 288 51 216 51C144 51 72 51 36 51L0 51Z" fill="#141414" stroke-linecap="round" stroke-linejoin="miter"></path></svg>