<svg width="1080" height="500" viewBox="0 0 1080 500" fill="none" xmlns="http://www.w3.org/2000/svg">
<g clip-path="url(#clip0)">
<path d="M-9 -9L27.3 15.1903C63.6 39.2266 136.2 87.6072 208.8 95.3112C281.4 103.015 368.117 50.7825 440.717 32.6012C513.317 14.4199 585.917 10.722 658.517 15.1903C731.117 19.5045 789.6 51.0906 862.2 86.2205C934.8 121.505 1007.4 179.438 1043.7 208.559L1080 237.526V501H1043.7C1007.4 501 934.8 501 862.2 501C789.6 501 717 501 644.4 501C571.8 501 499.2 501 426.6 501C354 501 281.4 501 208.8 501C136.2 501 63.6 501 27.3 501H-9V-9Z" fill="#141414"/>
</g>
<defs>
<clipPath id="clip0">
<rect width="1080" height="500" fill="white"/>
</clipPath>
</defs>
</svg>
