<svg xmlns="http://www.w3.org/2000/svg" version="1.1" xmlns:xlink="http://www.w3.org/1999/xlink" xmlns:svgjs="http://svgjs.com/svgjs" width="1440" height="560" preserveAspectRatio="none" viewBox="0 0 1440 560"><g mask="url(&quot;#SvgjsMask1148&quot;)" fill="none"><rect width="1440" height="560" x="0" y="0" fill="url(#SvgjsLinearGradient1149)"></rect><path d="M12.11 -29.03L64.94 1.47L64.94 62.47L12.11 92.97L-40.72 62.47L-40.72 1.47zM64.94 62.47L117.77 92.97L117.77 153.97L64.94 184.47L12.11 153.97L12.11 92.97zM64.94 245.47L117.77 275.97L117.77 336.97L64.94 367.47L12.11 336.97L12.11 275.97zM117.77 -29.03L170.6 1.47L170.6 62.47L117.77 92.97L64.94 62.47L64.94 1.47zM170.6 62.47L223.43 92.97L223.43 153.97L170.6 184.47L117.77 153.97L117.77 92.97zM117.77 153.97L170.6 184.47L170.6 245.47L117.77 275.97L64.94 245.47L64.94 184.47zM170.6 428.47L223.43 458.97L223.43 519.97L170.6 550.47L117.77 519.97L117.77 458.97zM223.43 153.97L276.26 184.47L276.26 245.47L223.43 275.97L170.6 245.47L170.6 184.47zM223.43 336.97L276.26 367.47L276.26 428.47L223.43 458.97L170.6 428.47L170.6 367.47zM223.43 519.97L276.26 550.47L276.26 611.47L223.43 641.97L170.6 611.47L170.6 550.47zM329.08 -29.03L381.91 1.47L381.91 62.47L329.08 92.97L276.26 62.47L276.26 1.47zM329.08 153.97L381.91 184.47L381.91 245.47L329.08 275.97L276.26 245.47L276.26 184.47zM381.91 245.47L434.74 275.97L434.74 336.97L381.91 367.47L329.08 336.97L329.08 275.97zM329.08 336.97L381.91 367.47L381.91 428.47L329.08 458.97L276.26 428.47L276.26 367.47zM381.91 428.47L434.74 458.97L434.74 519.97L381.91 550.47L329.08 519.97L329.08 458.97zM329.08 519.97L381.91 550.47L381.91 611.47L329.08 641.97L276.26 611.47L276.26 550.47zM434.74 -29.03L487.57 1.47L487.57 62.47L434.74 92.97L381.91 62.47L381.91 1.47zM487.57 62.47L540.4 92.97L540.4 153.97L487.57 184.47L434.74 153.97L434.74 92.97zM487.57 245.47L540.4 275.97L540.4 336.97L487.57 367.47L434.74 336.97L434.74 275.97zM487.57 428.47L540.4 458.97L540.4 519.97L487.57 550.47L434.74 519.97L434.74 458.97zM540.4 -29.03L593.23 1.47L593.23 62.47L540.4 92.97L487.57 62.47L487.57 1.47zM698.89 428.47L751.72 458.97L751.72 519.97L698.89 550.47L646.06 519.97L646.06 458.97zM751.72 -29.03L804.55 1.47L804.55 62.47L751.72 92.97L698.89 62.47L698.89 1.47zM804.55 62.47L857.37 92.97L857.37 153.97L804.55 184.47L751.72 153.97L751.72 92.97zM751.72 153.97L804.55 184.47L804.55 245.47L751.72 275.97L698.89 245.47L698.89 184.47zM804.55 428.47L857.37 458.97L857.37 519.97L804.55 550.47L751.72 519.97L751.72 458.97zM857.37 336.97L910.2 367.47L910.2 428.47L857.37 458.97L804.55 428.47L804.55 367.47zM857.37 519.97L910.2 550.47L910.2 611.47L857.37 641.97L804.55 611.47L804.55 550.47zM963.03 -29.03L1015.86 1.47L1015.86 62.47L963.03 92.97L910.2 62.47L910.2 1.47zM1068.69 -29.03L1121.52 1.47L1121.52 62.47L1068.69 92.97L1015.86 62.47L1015.86 1.47zM1068.69 153.97L1121.52 184.47L1121.52 245.47L1068.69 275.97L1015.86 245.47L1015.86 184.47zM1121.52 245.47L1174.35 275.97L1174.35 336.97L1121.52 367.47L1068.69 336.97L1068.69 275.97zM1068.69 336.97L1121.52 367.47L1121.52 428.47L1068.69 458.97L1015.86 428.47L1015.86 367.47zM1280.01 153.97L1332.84 184.47L1332.84 245.47L1280.01 275.97L1227.18 245.47L1227.18 184.47zM1332.84 245.47L1385.67 275.97L1385.67 336.97L1332.84 367.47L1280.01 336.97L1280.01 275.97zM1332.84 428.47L1385.67 458.97L1385.67 519.97L1332.84 550.47L1280.01 519.97L1280.01 458.97zM1385.67 336.97L1438.49 367.47L1438.49 428.47L1385.67 458.97L1332.84 428.47L1332.84 367.47zM1438.49 428.47L1491.32 458.97L1491.32 519.97L1438.49 550.47L1385.67 519.97L1385.67 458.97z" stroke="rgba(255, 255, 255, 0.17)" stroke-width="2"></path></g><defs><mask id="SvgjsMask1148"><rect width="1440" height="560" fill="#ffffff"></rect></mask><linearGradient x1="15.28%" y1="-39.29%" x2="84.72%" y2="139.29%" gradientUnits="userSpaceOnUse" id="SvgjsLinearGradient1149"><stop stop-color="#0e2a47" offset="0"></stop><stop stop-color="rgba(130, 0, 158, 0.17)" offset="1"></stop></linearGradient></defs></svg>