<svg xmlns="http://www.w3.org/2000/svg" version="1.1" xmlns:xlink="http://www.w3.org/1999/xlink" xmlns:svgjs="http://svgjs.com/svgjs" width="1440" height="560" preserveAspectRatio="none" viewBox="0 0 1440 560"><g mask="url(&quot;#SvgjsMask1110&quot;)" fill="none"><rect width="1440" height="560" x="0" y="0" fill="url(#SvgjsLinearGradient1111)"></rect><path d="M23.63 156.24L76.46 186.74L76.46 247.74L23.63 278.24L-29.2 247.74L-29.2 186.74zM23.63 522.24L76.46 552.74L76.46 613.74L23.63 644.24L-29.2 613.74L-29.2 552.74zM182.12 64.74L234.95 95.24L234.95 156.24L182.12 186.74L129.29 156.24L129.29 95.24zM182.12 430.74L234.95 461.24L234.95 522.24L182.12 552.74L129.29 522.24L129.29 461.24zM340.6 156.24L393.43 186.74L393.43 247.74L340.6 278.24L287.78 247.74L287.78 186.74zM393.43 247.74L446.26 278.24L446.26 339.24L393.43 369.74L340.6 339.24L340.6 278.24zM340.6 522.24L393.43 552.74L393.43 613.74L340.6 644.24L287.78 613.74L287.78 552.74zM446.26 -26.76L499.09 3.74L499.09 64.74L446.26 95.24L393.43 64.74L393.43 3.74zM446.26 339.24L499.09 369.74L499.09 430.74L446.26 461.24L393.43 430.74L393.43 369.74zM446.26 522.24L499.09 552.74L499.09 613.74L446.26 644.24L393.43 613.74L393.43 552.74zM604.75 64.74L657.58 95.24L657.58 156.24L604.75 186.74L551.92 156.24L551.92 95.24zM551.92 156.24L604.75 186.74L604.75 247.74L551.92 278.24L499.09 247.74L499.09 186.74zM604.75 430.74L657.58 461.24L657.58 522.24L604.75 552.74L551.92 522.24L551.92 461.24zM551.92 522.24L604.75 552.74L604.75 613.74L551.92 644.24L499.09 613.74L499.09 552.74zM710.41 247.74L763.24 278.24L763.24 339.24L710.41 369.74L657.58 339.24L657.58 278.24zM710.41 430.74L763.24 461.24L763.24 522.24L710.41 552.74L657.58 522.24L657.58 461.24zM763.24 -26.76L816.07 3.74L816.07 64.74L763.24 95.24L710.41 64.74L710.41 3.74zM816.07 247.74L868.89 278.24L868.89 339.24L816.07 369.74L763.24 339.24L763.24 278.24zM921.72 64.74L974.55 95.24L974.55 156.24L921.72 186.74L868.89 156.24L868.89 95.24zM974.55 -26.76L1027.38 3.74L1027.38 64.74L974.55 95.24L921.72 64.74L921.72 3.74zM974.55 339.24L1027.38 369.74L1027.38 430.74L974.55 461.24L921.72 430.74L921.72 369.74zM1080.21 156.24L1133.04 186.74L1133.04 247.74L1080.21 278.24L1027.38 247.74L1027.38 186.74zM1080.21 339.24L1133.04 369.74L1133.04 430.74L1080.21 461.24L1027.38 430.74L1027.38 369.74zM1080.21 522.24L1133.04 552.74L1133.04 613.74L1080.21 644.24L1027.38 613.74L1027.38 552.74zM1185.87 -26.76L1238.7 3.74L1238.7 64.74L1185.87 95.24L1133.04 64.74L1133.04 3.74zM1238.7 430.74L1291.53 461.24L1291.53 522.24L1238.7 552.74L1185.87 522.24L1185.87 461.24zM1291.53 156.24L1344.36 186.74L1344.36 247.74L1291.53 278.24L1238.7 247.74L1238.7 186.74zM1291.53 522.24L1344.36 552.74L1344.36 613.74L1291.53 644.24L1238.7 613.74L1238.7 552.74zM1397.19 -26.76L1450.01 3.74L1450.01 64.74L1397.19 95.24L1344.36 64.74L1344.36 3.74zM1450.01 64.74L1502.84 95.24L1502.84 156.24L1450.01 186.74L1397.19 156.24L1397.19 95.24zM1397.19 339.24L1450.01 369.74L1450.01 430.74L1397.19 461.24L1344.36 430.74L1344.36 369.74zM1450.01 430.74L1502.84 461.24L1502.84 522.24L1450.01 552.74L1397.19 522.24L1397.19 461.24zM1397.19 522.24L1450.01 552.74L1450.01 613.74L1397.19 644.24L1344.36 613.74L1344.36 552.74z" stroke="rgba(255, 255, 255, 0.17)" stroke-width="2"></path></g><defs><mask id="SvgjsMask1110"><rect width="1440" height="560" fill="#ffffff"></rect></mask><linearGradient x1="15.28%" y1="-39.29%" x2="84.72%" y2="139.29%" gradientUnits="userSpaceOnUse" id="SvgjsLinearGradient1111"><stop stop-color="#0e2a47" offset="0"></stop><stop stop-color="rgba(130, 0, 158, 1)" offset="1"></stop></linearGradient></defs></svg>