<svg xmlns="http://www.w3.org/2000/svg" version="1.1" xmlns:xlink="http://www.w3.org/1999/xlink" xmlns:svgjs="http://svgjs.com/svgjs" width="1440" height="560" preserveAspectRatio="none" viewBox="0 0 1440 560"><g mask="url(&quot;#SvgjsMask1021&quot;)" fill="none"><path d="M335 527L334 254" stroke-width="10" stroke="url(#SvgjsLinearGradient1022)" stroke-linecap="round" class="Down"></path><path d="M548 164L547 -166" stroke-width="6" stroke="url(#SvgjsLinearGradient1023)" stroke-linecap="round" class="Up"></path><path d="M567 4L566 357" stroke-width="10" stroke="url(#SvgjsLinearGradient1022)" stroke-linecap="round" class="Down"></path><path d="M1303 167L1302 409" stroke-width="8" stroke="url(#SvgjsLinearGradient1023)" stroke-linecap="round" class="Up"></path><path d="M947 327L946 643" stroke-width="10" stroke="url(#SvgjsLinearGradient1022)" stroke-linecap="round" class="Down"></path><path d="M490 453L489 285" stroke-width="10" stroke="url(#SvgjsLinearGradient1023)" stroke-linecap="round" class="Up"></path><path d="M832 479L831 759" stroke-width="8" stroke="url(#SvgjsLinearGradient1022)" stroke-linecap="round" class="Down"></path><path d="M1174 365L1173 526" stroke-width="10" stroke="url(#SvgjsLinearGradient1023)" stroke-linecap="round" class="Up"></path><path d="M54 296L53 585" stroke-width="6" stroke="url(#SvgjsLinearGradient1023)" stroke-linecap="round" class="Up"></path><path d="M1004 70L1003 447" stroke-width="6" stroke="url(#SvgjsLinearGradient1022)" stroke-linecap="round" class="Down"></path><path d="M38 136L37 -65" stroke-width="6" stroke="url(#SvgjsLinearGradient1022)" stroke-linecap="round" class="Down"></path><path d="M1192 166L1191 348" stroke-width="10" stroke="url(#SvgjsLinearGradient1023)" stroke-linecap="round" class="Up"></path><path d="M123 425L122 579" stroke-width="6" stroke="url(#SvgjsLinearGradient1023)" stroke-linecap="round" class="Up"></path><path d="M987 456L986 256" stroke-width="8" stroke="url(#SvgjsLinearGradient1022)" stroke-linecap="round" class="Down"></path><path d="M904 148L903 -205" stroke-width="6" stroke="url(#SvgjsLinearGradient1023)" stroke-linecap="round" class="Up"></path><path d="M832 363L831 741" stroke-width="6" stroke="url(#SvgjsLinearGradient1022)" stroke-linecap="round" class="Down"></path><path d="M900 425L899 234" stroke-width="8" stroke="url(#SvgjsLinearGradient1023)" stroke-linecap="round" class="Up"></path><path d="M822 76L821 249" stroke-width="10" stroke="url(#SvgjsLinearGradient1023)" stroke-linecap="round" class="Up"></path><path d="M1039 518L1038 918" stroke-width="8" stroke="url(#SvgjsLinearGradient1023)" stroke-linecap="round" class="Up"></path><path d="M1188 409L1187 593" stroke-width="10" stroke="url(#SvgjsLinearGradient1022)" stroke-linecap="round" class="Down"></path><path d="M668 460L667 866" stroke-width="6" stroke="url(#SvgjsLinearGradient1023)" stroke-linecap="round" class="Up"></path><path d="M671 369L670 130" stroke-width="8" stroke="url(#SvgjsLinearGradient1023)" stroke-linecap="round" class="Up"></path><path d="M349 109L348 -190" stroke-width="6" stroke="url(#SvgjsLinearGradient1023)" stroke-linecap="round" class="Up"></path><path d="M423 88L422 290" stroke-width="6" stroke="url(#SvgjsLinearGradient1022)" stroke-linecap="round" class="Down"></path><path d="M1037 550L1036 296" stroke-width="6" stroke="url(#SvgjsLinearGradient1022)" stroke-linecap="round" class="Down"></path><path d="M327 22L326 -285" stroke-width="8" stroke="url(#SvgjsLinearGradient1023)" stroke-linecap="round" class="Up"></path><path d="M704 165L703 -230" stroke-width="8" stroke="url(#SvgjsLinearGradient1022)" stroke-linecap="round" class="Down"></path><path d="M787 485L786 77" stroke-width="6" stroke="url(#SvgjsLinearGradient1023)" stroke-linecap="round" class="Up"></path><path d="M388 500L387 820" stroke-width="8" stroke="url(#SvgjsLinearGradient1023)" stroke-linecap="round" class="Up"></path><path d="M392 341L391 132" stroke-width="8" stroke="url(#SvgjsLinearGradient1022)" stroke-linecap="round" class="Down"></path><path d="M747 220L746 65" stroke-width="10" stroke="url(#SvgjsLinearGradient1023)" stroke-linecap="round" class="Up"></path><path d="M381 277L380 -98" stroke-width="8" stroke="url(#SvgjsLinearGradient1022)" stroke-linecap="round" class="Down"></path><path d="M784 485L783 811" stroke-width="10" stroke="url(#SvgjsLinearGradient1022)" stroke-linecap="round" class="Down"></path><path d="M584 184L583 538" stroke-width="8" stroke="url(#SvgjsLinearGradient1023)" stroke-linecap="round" class="Up"></path><path d="M1024 219L1023 -31" stroke-width="10" stroke="url(#SvgjsLinearGradient1022)" stroke-linecap="round" class="Down"></path><path d="M299 133L298 418" stroke-width="10" stroke="url(#SvgjsLinearGradient1022)" stroke-linecap="round" class="Down"></path></g><defs><mask id="SvgjsMask1021"><rect width="1440" height="560" fill="#ffffff"></rect></mask><linearGradient x1="0%" y1="0%" x2="0%" y2="100%" id="SvgjsLinearGradient1022"><stop stop-color="rgba(255, 223, 248, 0)" offset="0"></stop><stop stop-color="rgba(255, 223, 248, 1)" offset="1"></stop></linearGradient><linearGradient x1="0%" y1="100%" x2="0%" y2="0%" id="SvgjsLinearGradient1023"><stop stop-color="rgba(255, 223, 248, 0)" offset="0"></stop><stop stop-color="rgba(255, 223, 248, 1)" offset="1"></stop></linearGradient></defs></svg>