<svg xmlns="http://www.w3.org/2000/svg" version="1.1" xmlns:xlink="http://www.w3.org/1999/xlink" xmlns:svgjs="http://svgjs.com/svgjs" width="1920" height="200" preserveAspectRatio="none" viewBox="0 0 1920 200"><g mask="url(&quot;#SvgjsMask1080&quot;)" fill="none"><rect width="1920" height="200" x="0" y="0" fill="#0e2a47"></rect><path d="M-75.13 259.65L-75.13 259.65" stroke="rgba(84, 75, 112, 1)" stroke-width="1.5"></path><path d="M-75.13 259.65L-105.8 365.54" stroke="rgba(84, 75, 112, 1)" stroke-width="1.5"></path><path d="M-75.13 259.65L104.08 257.79" stroke="rgba(84, 75, 112, 1)" stroke-width="1.5"></path><path d="M-75.13 259.65L38.44 405.49" stroke="rgba(84, 75, 112, 1)" stroke-width="1.5"></path><path d="M-75.13 259.65L232.71 199.8" stroke="rgba(84, 75, 112, 1)" stroke-width="1.5"></path><path d="M-105.8 365.54L-105.8 365.54" stroke="rgba(84, 75, 112, 1)" stroke-width="1.5"></path><path d="M-105.8 365.54L38.44 405.49" stroke="rgba(84, 75, 112, 1)" stroke-width="1.5"></path><path d="M-105.8 365.54L104.08 257.79" stroke="rgba(84, 75, 112, 1)" stroke-width="1.5"></path><path d="M-105.8 365.54L253.59 372.64" stroke="rgba(84, 75, 112, 1)" stroke-width="1.5"></path><path d="M-105.8 365.54L232.71 199.8" stroke="rgba(84, 75, 112, 1)" stroke-width="1.5"></path><path d="M104.08 257.79L104.08 257.79" stroke="rgba(84, 75, 112, 1)" stroke-width="1.5"></path><path d="M104.08 257.79L232.71 199.8" stroke="rgba(84, 75, 112, 1)" stroke-width="1.5"></path><path d="M104.08 257.79L38.44 405.49" stroke="rgba(84, 75, 112, 1)" stroke-width="1.5"></path><path d="M104.08 257.79L253.59 372.64" stroke="rgba(84, 75, 112, 1)" stroke-width="1.5"></path><path d="M38.44 405.49L38.44 405.49" stroke="rgba(84, 75, 112, 1)" stroke-width="1.5"></path><path d="M232.71 199.8L232.71 199.8" stroke="rgba(84, 75, 112, 1)" stroke-width="1.5"></path><path d="M232.71 199.8L390.49 191.52" stroke="rgba(84, 75, 112, 1)" stroke-width="1.5"></path><path d="M253.59 372.64L253.59 372.64" stroke="rgba(84, 75, 112, 1)" stroke-width="1.5"></path><path d="M253.59 372.64L349.39 373.43" stroke="rgba(84, 75, 112, 1)" stroke-width="1.5"></path><path d="M253.59 372.64L232.71 199.8" stroke="rgba(84, 75, 112, 1)" stroke-width="1.5"></path><path d="M253.59 372.64L38.44 405.49" stroke="rgba(84, 75, 112, 1)" stroke-width="1.5"></path><path d="M390.49 191.52L390.49 191.52" stroke="rgba(84, 75, 112, 1)" stroke-width="1.5"></path><path d="M390.49 191.52L534.55 244.67" stroke="rgba(84, 75, 112, 1)" stroke-width="1.5"></path><path d="M390.49 191.52L349.39 373.43" stroke="rgba(84, 75, 112, 1)" stroke-width="1.5"></path><path d="M390.49 191.52L253.59 372.64" stroke="rgba(84, 75, 112, 1)" stroke-width="1.5"></path><path d="M349.39 373.43L349.39 373.43" stroke="rgba(84, 75, 112, 1)" stroke-width="1.5"></path><path d="M349.39 373.43L232.71 199.8" stroke="rgba(84, 75, 112, 1)" stroke-width="1.5"></path><path d="M349.39 373.43L558.49 390.45" stroke="rgba(84, 75, 112, 1)" stroke-width="1.5"></path><path d="M349.39 373.43L534.55 244.67" stroke="rgba(84, 75, 112, 1)" stroke-width="1.5"></path><path d="M534.55 244.67L534.55 244.67" stroke="rgba(84, 75, 112, 1)" stroke-width="1.5"></path><path d="M534.55 244.67L652.56 198.59" stroke="rgba(84, 75, 112, 1)" stroke-width="1.5"></path><path d="M534.55 244.67L558.49 390.45" stroke="rgba(84, 75, 112, 1)" stroke-width="1.5"></path><path d="M534.55 244.67L640.98 355.69" stroke="rgba(84, 75, 112, 1)" stroke-width="1.5"></path><path d="M558.49 390.45L558.49 390.45" stroke="rgba(84, 75, 112, 1)" stroke-width="1.5"></path><path d="M558.49 390.45L640.98 355.69" stroke="rgba(84, 75, 112, 1)" stroke-width="1.5"></path><path d="M652.56 198.59L652.56 198.59" stroke="rgba(84, 75, 112, 1)" stroke-width="1.5"></path><path d="M652.56 198.59L640.98 355.69" stroke="rgba(84, 75, 112, 1)" stroke-width="1.5"></path><path d="M652.56 198.59L558.49 390.45" stroke="rgba(84, 75, 112, 1)" stroke-width="1.5"></path><path d="M652.56 198.59L852.45 82.08" stroke="rgba(84, 75, 112, 1)" stroke-width="1.5"></path><path d="M640.98 355.69L640.98 355.69" stroke="rgba(84, 75, 112, 1)" stroke-width="1.5"></path><path d="M640.98 355.69L825.61 403.24" stroke="rgba(84, 75, 112, 1)" stroke-width="1.5"></path><path d="M640.98 355.69L349.39 373.43" stroke="rgba(84, 75, 112, 1)" stroke-width="1.5"></path><path d="M852.45 82.08L852.45 82.08" stroke="rgba(84, 75, 112, 1)" stroke-width="1.5"></path><path d="M852.45 82.08L1002.82 226.05" stroke="rgba(84, 75, 112, 1)" stroke-width="1.5"></path><path d="M852.45 82.08L1126.09 94.27" stroke="rgba(84, 75, 112, 1)" stroke-width="1.5"></path><path d="M852.45 82.08L825.61 403.24" stroke="rgba(84, 75, 112, 1)" stroke-width="1.5"></path><path d="M852.45 82.08L1144 223.62" stroke="rgba(84, 75, 112, 1)" stroke-width="1.5"></path><path d="M825.61 403.24L825.61 403.24" stroke="rgba(84, 75, 112, 1)" stroke-width="1.5"></path><path d="M825.61 403.24L987.33 389.33" stroke="rgba(84, 75, 112, 1)" stroke-width="1.5"></path><path d="M825.61 403.24L1002.82 226.05" stroke="rgba(84, 75, 112, 1)" stroke-width="1.5"></path><path d="M825.61 403.24L558.49 390.45" stroke="rgba(84, 75, 112, 1)" stroke-width="1.5"></path><path d="M825.61 403.24L652.56 198.59" stroke="rgba(84, 75, 112, 1)" stroke-width="1.5"></path><path d="M825.61 403.24L1129.19 379.01" stroke="rgba(84, 75, 112, 1)" stroke-width="1.5"></path><path d="M1002.82 226.05L1002.82 226.05" stroke="rgba(84, 75, 112, 1)" stroke-width="1.5"></path><path d="M1002.82 226.05L1144 223.62" stroke="rgba(84, 75, 112, 1)" stroke-width="1.5"></path><path d="M1002.82 226.05L987.33 389.33" stroke="rgba(84, 75, 112, 1)" stroke-width="1.5"></path><path d="M1002.82 226.05L1126.09 94.27" stroke="rgba(84, 75, 112, 1)" stroke-width="1.5"></path><path d="M987.33 389.33L987.33 389.33" stroke="rgba(84, 75, 112, 1)" stroke-width="1.5"></path><path d="M987.33 389.33L1129.19 379.01" stroke="rgba(84, 75, 112, 1)" stroke-width="1.5"></path><path d="M1126.09 94.27L1126.09 94.27" stroke="rgba(84, 75, 112, 1)" stroke-width="1.5"></path><path d="M1126.09 94.27L1144 223.62" stroke="rgba(84, 75, 112, 1)" stroke-width="1.5"></path><path d="M1126.09 94.27L1309.77 41.36" stroke="rgba(84, 75, 112, 1)" stroke-width="1.5"></path><path d="M1126.09 94.27L1267.37 231.29" stroke="rgba(84, 75, 112, 1)" stroke-width="1.5"></path><path d="M1144 223.62L1144 223.62" stroke="rgba(84, 75, 112, 1)" stroke-width="1.5"></path><path d="M1144 223.62L1267.37 231.29" stroke="rgba(84, 75, 112, 1)" stroke-width="1.5"></path><path d="M1129.19 379.01L1129.19 379.01" stroke="rgba(84, 75, 112, 1)" stroke-width="1.5"></path><path d="M1129.19 379.01L1144 223.62" stroke="rgba(84, 75, 112, 1)" stroke-width="1.5"></path><path d="M1129.19 379.01L1302.61 394.79" stroke="rgba(84, 75, 112, 1)" stroke-width="1.5"></path><path d="M1311.08 -62.98L1311.08 -62.98" stroke="rgba(84, 75, 112, 1)" stroke-width="1.5"></path><path d="M1311.08 -62.98L1309.77 41.36" stroke="rgba(84, 75, 112, 1)" stroke-width="1.5"></path><path d="M1311.08 -62.98L1453.72 -49.39" stroke="rgba(84, 75, 112, 1)" stroke-width="1.5"></path><path d="M1311.08 -62.98L1397.12 85.33" stroke="rgba(84, 75, 112, 1)" stroke-width="1.5"></path><path d="M1311.08 -62.98L1126.09 94.27" stroke="rgba(84, 75, 112, 1)" stroke-width="1.5"></path><path d="M1311.08 -62.98L1450.42 190.06" stroke="rgba(84, 75, 112, 1)" stroke-width="1.5"></path><path d="M1311.08 -62.98L1267.37 231.29" stroke="rgba(84, 75, 112, 1)" stroke-width="1.5"></path><path d="M1309.77 41.36L1309.77 41.36" stroke="rgba(84, 75, 112, 1)" stroke-width="1.5"></path><path d="M1309.77 41.36L1397.12 85.33" stroke="rgba(84, 75, 112, 1)" stroke-width="1.5"></path><path d="M1267.37 231.29L1267.37 231.29" stroke="rgba(84, 75, 112, 1)" stroke-width="1.5"></path><path d="M1267.37 231.29L1302.61 394.79" stroke="rgba(84, 75, 112, 1)" stroke-width="1.5"></path><path d="M1267.37 231.29L1450.42 190.06" stroke="rgba(84, 75, 112, 1)" stroke-width="1.5"></path><path d="M1267.37 231.29L1309.77 41.36" stroke="rgba(84, 75, 112, 1)" stroke-width="1.5"></path><path d="M1267.37 231.29L1397.12 85.33" stroke="rgba(84, 75, 112, 1)" stroke-width="1.5"></path><path d="M1302.61 394.79L1302.61 394.79" stroke="rgba(84, 75, 112, 1)" stroke-width="1.5"></path><path d="M1302.61 394.79L1448.98 408.54" stroke="rgba(84, 75, 112, 1)" stroke-width="1.5"></path><path d="M1302.61 394.79L1144 223.62" stroke="rgba(84, 75, 112, 1)" stroke-width="1.5"></path><path d="M1302.61 394.79L1450.42 190.06" stroke="rgba(84, 75, 112, 1)" stroke-width="1.5"></path><path d="M1453.72 -49.39L1453.72 -49.39" stroke="rgba(84, 75, 112, 1)" stroke-width="1.5"></path><path d="M1453.72 -49.39L1397.12 85.33" stroke="rgba(84, 75, 112, 1)" stroke-width="1.5"></path><path d="M1397.12 85.33L1397.12 85.33" stroke="rgba(84, 75, 112, 1)" stroke-width="1.5"></path><path d="M1397.12 85.33L1450.42 190.06" stroke="rgba(84, 75, 112, 1)" stroke-width="1.5"></path><path d="M1450.42 190.06L1450.42 190.06" stroke="rgba(84, 75, 112, 1)" stroke-width="1.5"></path><path d="M1450.42 190.06L1561.48 207.97" stroke="rgba(84, 75, 112, 1)" stroke-width="1.5"></path><path d="M1450.42 190.06L1588.08 107.92" stroke="rgba(84, 75, 112, 1)" stroke-width="1.5"></path><path d="M1448.98 408.54L1448.98 408.54" stroke="rgba(84, 75, 112, 1)" stroke-width="1.5"></path><path d="M1448.98 408.54L1597.28 408.63" stroke="rgba(84, 75, 112, 1)" stroke-width="1.5"></path><path d="M1448.98 408.54L1450.42 190.06" stroke="rgba(84, 75, 112, 1)" stroke-width="1.5"></path><path d="M1448.98 408.54L1561.48 207.97" stroke="rgba(84, 75, 112, 1)" stroke-width="1.5"></path><path d="M1448.98 408.54L1267.37 231.29" stroke="rgba(84, 75, 112, 1)" stroke-width="1.5"></path><path d="M1448.98 408.54L1697.41 338.41" stroke="rgba(84, 75, 112, 1)" stroke-width="1.5"></path><path d="M1588.08 107.92L1588.08 107.92" stroke="rgba(84, 75, 112, 1)" stroke-width="1.5"></path><path d="M1588.08 107.92L1561.48 207.97" stroke="rgba(84, 75, 112, 1)" stroke-width="1.5"></path><path d="M1588.08 107.92L1724.08 92.74" stroke="rgba(84, 75, 112, 1)" stroke-width="1.5"></path><path d="M1561.48 207.97L1561.48 207.97" stroke="rgba(84, 75, 112, 1)" stroke-width="1.5"></path><path d="M1561.48 207.97L1727.13 218.05" stroke="rgba(84, 75, 112, 1)" stroke-width="1.5"></path><path d="M1597.28 408.63L1597.28 408.63" stroke="rgba(84, 75, 112, 1)" stroke-width="1.5"></path><path d="M1597.28 408.63L1697.41 338.41" stroke="rgba(84, 75, 112, 1)" stroke-width="1.5"></path><path d="M1597.28 408.63L1561.48 207.97" stroke="rgba(84, 75, 112, 1)" stroke-width="1.5"></path><path d="M1597.28 408.63L1727.13 218.05" stroke="rgba(84, 75, 112, 1)" stroke-width="1.5"></path><path d="M1597.28 408.63L1450.42 190.06" stroke="rgba(84, 75, 112, 1)" stroke-width="1.5"></path><path d="M1597.28 408.63L1884.12 381.6" stroke="rgba(84, 75, 112, 1)" stroke-width="1.5"></path><path d="M1748.53 -88.05L1748.53 -88.05" stroke="rgba(84, 75, 112, 1)" stroke-width="1.5"></path><path d="M1748.53 -88.05L1863.27 -57.99" stroke="rgba(84, 75, 112, 1)" stroke-width="1.5"></path><path d="M1748.53 -88.05L1724.08 92.74" stroke="rgba(84, 75, 112, 1)" stroke-width="1.5"></path><path d="M1748.53 -88.05L1889.1 63.52" stroke="rgba(84, 75, 112, 1)" stroke-width="1.5"></path><path d="M1724.08 92.74L1724.08 92.74" stroke="rgba(84, 75, 112, 1)" stroke-width="1.5"></path><path d="M1724.08 92.74L1727.13 218.05" stroke="rgba(84, 75, 112, 1)" stroke-width="1.5"></path><path d="M1724.08 92.74L1889.1 63.52" stroke="rgba(84, 75, 112, 1)" stroke-width="1.5"></path><path d="M1724.08 92.74L1561.48 207.97" stroke="rgba(84, 75, 112, 1)" stroke-width="1.5"></path><path d="M1724.08 92.74L1863.27 -57.99" stroke="rgba(84, 75, 112, 1)" stroke-width="1.5"></path><path d="M1727.13 218.05L1727.13 218.05" stroke="rgba(84, 75, 112, 1)" stroke-width="1.5"></path><path d="M1727.13 218.05L1697.41 338.41" stroke="rgba(84, 75, 112, 1)" stroke-width="1.5"></path><path d="M1727.13 218.05L1900.15 227.85" stroke="rgba(84, 75, 112, 1)" stroke-width="1.5"></path><path d="M1727.13 218.05L1588.08 107.92" stroke="rgba(84, 75, 112, 1)" stroke-width="1.5"></path><path d="M1697.41 338.41L1697.41 338.41" stroke="rgba(84, 75, 112, 1)" stroke-width="1.5"></path><path d="M1697.41 338.41L1561.48 207.97" stroke="rgba(84, 75, 112, 1)" stroke-width="1.5"></path><path d="M1863.27 -57.99L1863.27 -57.99" stroke="rgba(84, 75, 112, 1)" stroke-width="1.5"></path><path d="M1863.27 -57.99L1889.1 63.52" stroke="rgba(84, 75, 112, 1)" stroke-width="1.5"></path><path d="M1863.27 -57.99L2043.91 102.81" stroke="rgba(84, 75, 112, 1)" stroke-width="1.5"></path><path d="M1863.27 -57.99L1900.15 227.85" stroke="rgba(84, 75, 112, 1)" stroke-width="1.5"></path><path d="M1863.27 -57.99L1727.13 218.05" stroke="rgba(84, 75, 112, 1)" stroke-width="1.5"></path><path d="M1889.1 63.52L1889.1 63.52" stroke="rgba(84, 75, 112, 1)" stroke-width="1.5"></path><path d="M1889.1 63.52L2043.91 102.81" stroke="rgba(84, 75, 112, 1)" stroke-width="1.5"></path><path d="M1889.1 63.52L1900.15 227.85" stroke="rgba(84, 75, 112, 1)" stroke-width="1.5"></path><path d="M1889.1 63.52L2012.19 229.91" stroke="rgba(84, 75, 112, 1)" stroke-width="1.5"></path><path d="M1900.15 227.85L1900.15 227.85" stroke="rgba(84, 75, 112, 1)" stroke-width="1.5"></path><path d="M1900.15 227.85L2012.19 229.91" stroke="rgba(84, 75, 112, 1)" stroke-width="1.5"></path><path d="M1900.15 227.85L1884.12 381.6" stroke="rgba(84, 75, 112, 1)" stroke-width="1.5"></path><path d="M1900.15 227.85L1999.09 369.16" stroke="rgba(84, 75, 112, 1)" stroke-width="1.5"></path><path d="M1900.15 227.85L2043.91 102.81" stroke="rgba(84, 75, 112, 1)" stroke-width="1.5"></path><path d="M1884.12 381.6L1884.12 381.6" stroke="rgba(84, 75, 112, 1)" stroke-width="1.5"></path><path d="M1884.12 381.6L1999.09 369.16" stroke="rgba(84, 75, 112, 1)" stroke-width="1.5"></path><path d="M2043.91 102.81L2043.91 102.81" stroke="rgba(84, 75, 112, 1)" stroke-width="1.5"></path><path d="M2043.91 102.81L2012.19 229.91" stroke="rgba(84, 75, 112, 1)" stroke-width="1.5"></path><path d="M2012.19 229.91L2012.19 229.91" stroke="rgba(84, 75, 112, 1)" stroke-width="1.5"></path><path d="M2012.19 229.91L1999.09 369.16" stroke="rgba(84, 75, 112, 1)" stroke-width="1.5"></path><path d="M2012.19 229.91L1884.12 381.6" stroke="rgba(84, 75, 112, 1)" stroke-width="1.5"></path><path d="M2012.19 229.91L1727.13 218.05" stroke="rgba(84, 75, 112, 1)" stroke-width="1.5"></path><path d="M1999.09 369.16L1999.09 369.16" stroke="rgba(84, 75, 112, 1)" stroke-width="1.5"></path><path d="M1999.09 369.16L2043.91 102.81" stroke="rgba(84, 75, 112, 1)" stroke-width="1.5"></path><path d="M1999.09 369.16L1697.41 338.41" stroke="rgba(84, 75, 112, 1)" stroke-width="1.5"></path><circle r="5" cx="-75.13" cy="259.65" fill="rgba(84, 75, 112, 1)"></circle><circle r="5" cx="-105.8" cy="365.54" fill="rgba(84, 75, 112, 1)"></circle><circle r="5" cx="104.08" cy="257.79" fill="rgba(84, 75, 112, 1)"></circle><circle r="5" cx="38.44" cy="405.49" fill="rgba(84, 75, 112, 1)"></circle><circle r="5" cx="232.71" cy="199.8" fill="rgba(84, 75, 112, 1)"></circle><circle r="5" cx="253.59" cy="372.64" fill="rgba(84, 75, 112, 1)"></circle><circle r="5" cx="390.49" cy="191.52" fill="rgba(84, 75, 112, 1)"></circle><circle r="5" cx="349.39" cy="373.43" fill="rgba(84, 75, 112, 1)"></circle><circle r="5" cx="534.55" cy="244.67" fill="rgba(84, 75, 112, 1)"></circle><circle r="5" cx="558.49" cy="390.45" fill="rgba(84, 75, 112, 1)"></circle><circle r="5" cx="652.56" cy="198.59" fill="rgba(84, 75, 112, 1)"></circle><circle r="5" cx="640.98" cy="355.69" fill="rgba(84, 75, 112, 1)"></circle><circle r="5" cx="852.45" cy="82.08" fill="rgba(84, 75, 112, 1)"></circle><circle r="5" cx="825.61" cy="403.24" fill="rgba(84, 75, 112, 1)"></circle><circle r="5" cx="1002.82" cy="226.05" fill="rgba(84, 75, 112, 1)"></circle><circle r="5" cx="987.33" cy="389.33" fill="rgba(84, 75, 112, 1)"></circle><circle r="5" cx="1126.09" cy="94.27" fill="rgba(84, 75, 112, 1)"></circle><circle r="5" cx="1144" cy="223.62" fill="rgba(84, 75, 112, 1)"></circle><circle r="5" cx="1129.19" cy="379.01" fill="rgba(84, 75, 112, 1)"></circle><circle r="5" cx="1311.08" cy="-62.98" fill="rgba(84, 75, 112, 1)"></circle><circle r="5" cx="1309.77" cy="41.36" fill="rgba(84, 75, 112, 1)"></circle><circle r="5" cx="1267.37" cy="231.29" fill="rgba(84, 75, 112, 1)"></circle><circle r="5" cx="1302.61" cy="394.79" fill="rgba(84, 75, 112, 1)"></circle><circle r="5" cx="1453.72" cy="-49.39" fill="rgba(84, 75, 112, 1)"></circle><circle r="5" cx="1397.12" cy="85.33" fill="rgba(84, 75, 112, 1)"></circle><circle r="5" cx="1450.42" cy="190.06" fill="rgba(84, 75, 112, 1)"></circle><circle r="5" cx="1448.98" cy="408.54" fill="rgba(84, 75, 112, 1)"></circle><circle r="5" cx="1588.08" cy="107.92" fill="rgba(84, 75, 112, 1)"></circle><circle r="5" cx="1561.48" cy="207.97" fill="rgba(84, 75, 112, 1)"></circle><circle r="5" cx="1597.28" cy="408.63" fill="rgba(84, 75, 112, 1)"></circle><circle r="5" cx="1748.53" cy="-88.05" fill="rgba(84, 75, 112, 1)"></circle><circle r="5" cx="1724.08" cy="92.74" fill="rgba(84, 75, 112, 1)"></circle><circle r="5" cx="1727.13" cy="218.05" fill="rgba(84, 75, 112, 1)"></circle><circle r="5" cx="1697.41" cy="338.41" fill="rgba(84, 75, 112, 1)"></circle><circle r="5" cx="1863.27" cy="-57.99" fill="rgba(84, 75, 112, 1)"></circle><circle r="5" cx="1889.1" cy="63.52" fill="rgba(84, 75, 112, 1)"></circle><circle r="5" cx="1900.15" cy="227.85" fill="rgba(84, 75, 112, 1)"></circle><circle r="5" cx="1884.12" cy="381.6" fill="rgba(84, 75, 112, 1)"></circle><circle r="5" cx="2043.91" cy="102.81" fill="rgba(84, 75, 112, 1)"></circle><circle r="5" cx="2012.19" cy="229.91" fill="rgba(84, 75, 112, 1)"></circle><circle r="5" cx="1999.09" cy="369.16" fill="rgba(84, 75, 112, 1)"></circle><path d="M344.14 235.99L344.14 235.99" stroke="hsl(228.5, 77.2%, 51.5%)" stroke-width="1.5"></path><path d="M344.14 235.99L364.7 341.08" stroke="hsl(228.5, 77.2%, 51.5%)" stroke-width="1.5"></path><path d="M344.14 235.99L215.39 210.87" stroke="hsl(228.5, 77.2%, 51.5%)" stroke-width="1.5"></path><path d="M344.14 235.99L249.71 379.01" stroke="hsl(228.5, 77.2%, 51.5%)" stroke-width="1.5"></path><path d="M540.15 399.86L540.15 399.86" stroke="hsl(228.5, 77.2%, 51.5%)" stroke-width="1.5"></path><path d="M540.15 399.86L527.43 240.56" stroke="hsl(228.5, 77.2%, 51.5%)" stroke-width="1.5"></path><path d="M540.15 399.86L705.36 392.02" stroke="hsl(228.5, 77.2%, 51.5%)" stroke-width="1.5"></path><path d="M540.15 399.86L364.7 341.08" stroke="hsl(228.5, 77.2%, 51.5%)" stroke-width="1.5"></path><path d="M540.15 399.86L666.55 212.83" stroke="hsl(228.5, 77.2%, 51.5%)" stroke-width="1.5"></path><path d="M540.15 399.86L344.14 235.99" stroke="hsl(228.5, 77.2%, 51.5%)" stroke-width="1.5"></path><path d="M540.15 399.86L249.71 379.01" stroke="hsl(228.5, 77.2%, 51.5%)" stroke-width="1.5"></path><path d="M960.62 240.19L960.62 240.19" stroke="hsl(228.5, 77.2%, 51.5%)" stroke-width="1.5"></path><path d="M960.62 240.19L976.09 346.86" stroke="hsl(228.5, 77.2%, 51.5%)" stroke-width="1.5"></path><path d="M960.62 240.19L796.33 240.06" stroke="hsl(228.5, 77.2%, 51.5%)" stroke-width="1.5"></path><path d="M960.62 240.19L1135.05 239.46" stroke="hsl(228.5, 77.2%, 51.5%)" stroke-width="1.5"></path><path d="M960.62 240.19L832.02 399.98" stroke="hsl(228.5, 77.2%, 51.5%)" stroke-width="1.5"></path><path d="M960.62 240.19L1129.59 402.59" stroke="hsl(228.5, 77.2%, 51.5%)" stroke-width="1.5"></path><path d="M1432.22 79.78L1432.22 79.78" stroke="hsl(228.5, 77.2%, 51.5%)" stroke-width="1.5"></path><path d="M1432.22 79.78L1308.91 99.26" stroke="hsl(228.5, 77.2%, 51.5%)" stroke-width="1.5"></path><path d="M1432.22 79.78L1581.31 97.02" stroke="hsl(228.5, 77.2%, 51.5%)" stroke-width="1.5"></path><path d="M1432.22 79.78L1577.06 -43.06" stroke="hsl(228.5, 77.2%, 51.5%)" stroke-width="1.5"></path><path d="M1432.22 79.78L1256.76 206.15" stroke="hsl(228.5, 77.2%, 51.5%)" stroke-width="1.5"></path><path d="M1432.22 79.78L1594.68 230.21" stroke="hsl(228.5, 77.2%, 51.5%)" stroke-width="1.5"></path><path d="M1432.22 79.78L1424.18 348.1" stroke="hsl(228.5, 77.2%, 51.5%)" stroke-width="1.5"></path><path d="M1424.18 348.1L1424.18 348.1" stroke="hsl(228.5, 77.2%, 51.5%)" stroke-width="1.5"></path><path d="M1424.18 348.1L1558.59 394.01" stroke="hsl(228.5, 77.2%, 51.5%)" stroke-width="1.5"></path><path d="M1424.18 348.1L1257.16 339.97" stroke="hsl(228.5, 77.2%, 51.5%)" stroke-width="1.5"></path><path d="M1424.18 348.1L1594.68 230.21" stroke="hsl(228.5, 77.2%, 51.5%)" stroke-width="1.5"></path><path d="M1424.18 348.1L1256.76 206.15" stroke="hsl(228.5, 77.2%, 51.5%)" stroke-width="1.5"></path><path d="M1881.34 91.44L1881.34 91.44" stroke="hsl(228.5, 77.2%, 51.5%)" stroke-width="1.5"></path><path d="M1881.34 91.44L1879.43 -44.44" stroke="hsl(228.5, 77.2%, 51.5%)" stroke-width="1.5"></path><path d="M1881.34 91.44L1892.21 248.75" stroke="hsl(228.5, 77.2%, 51.5%)" stroke-width="1.5"></path><path d="M1881.34 91.44L2043.3 59.62" stroke="hsl(228.5, 77.2%, 51.5%)" stroke-width="1.5"></path><path d="M1881.34 91.44L2006.63 217.44" stroke="hsl(228.5, 77.2%, 51.5%)" stroke-width="1.5"></path><path d="M1881.34 91.44L1705.69 233.63" stroke="hsl(228.5, 77.2%, 51.5%)" stroke-width="1.5"></path><path d="M-81.09 228.33L-81.09 228.33" stroke="hsl(228.5, 77.2%, 51.5%)" stroke-width="1.5"></path><path d="M-81.09 228.33L-79.05 352.36" stroke="hsl(228.5, 77.2%, 51.5%)" stroke-width="1.5"></path><path d="M-81.09 228.33L80.97 249.94" stroke="hsl(228.5, 77.2%, 51.5%)" stroke-width="1.5"></path><path d="M-79.05 352.36L-79.05 352.36" stroke="hsl(228.5, 77.2%, 51.5%)" stroke-width="1.5"></path><path d="M-79.05 352.36L77.16 357.16" stroke="hsl(228.5, 77.2%, 51.5%)" stroke-width="1.5"></path><path d="M-79.05 352.36L80.97 249.94" stroke="hsl(228.5, 77.2%, 51.5%)" stroke-width="1.5"></path><path d="M-79.05 352.36L215.39 210.87" stroke="hsl(228.5, 77.2%, 51.5%)" stroke-width="1.5"></path><path d="M80.97 249.94L80.97 249.94" stroke="hsl(228.5, 77.2%, 51.5%)" stroke-width="1.5"></path><path d="M80.97 249.94L77.16 357.16" stroke="hsl(228.5, 77.2%, 51.5%)" stroke-width="1.5"></path><path d="M77.16 357.16L77.16 357.16" stroke="hsl(228.5, 77.2%, 51.5%)" stroke-width="1.5"></path><path d="M77.16 357.16L249.71 379.01" stroke="hsl(228.5, 77.2%, 51.5%)" stroke-width="1.5"></path><path d="M215.39 210.87L215.39 210.87" stroke="hsl(228.5, 77.2%, 51.5%)" stroke-width="1.5"></path><path d="M215.39 210.87L80.97 249.94" stroke="hsl(228.5, 77.2%, 51.5%)" stroke-width="1.5"></path><path d="M215.39 210.87L249.71 379.01" stroke="hsl(228.5, 77.2%, 51.5%)" stroke-width="1.5"></path><path d="M249.71 379.01L249.71 379.01" stroke="hsl(228.5, 77.2%, 51.5%)" stroke-width="1.5"></path><path d="M249.71 379.01L364.7 341.08" stroke="hsl(228.5, 77.2%, 51.5%)" stroke-width="1.5"></path><path d="M249.71 379.01L80.97 249.94" stroke="hsl(228.5, 77.2%, 51.5%)" stroke-width="1.5"></path><path d="M364.7 341.08L364.7 341.08" stroke="hsl(228.5, 77.2%, 51.5%)" stroke-width="1.5"></path><path d="M364.7 341.08L527.43 240.56" stroke="hsl(228.5, 77.2%, 51.5%)" stroke-width="1.5"></path><path d="M364.7 341.08L215.39 210.87" stroke="hsl(228.5, 77.2%, 51.5%)" stroke-width="1.5"></path><path d="M527.43 240.56L527.43 240.56" stroke="hsl(228.5, 77.2%, 51.5%)" stroke-width="1.5"></path><path d="M527.43 240.56L666.55 212.83" stroke="hsl(228.5, 77.2%, 51.5%)" stroke-width="1.5"></path><path d="M666.55 212.83L666.55 212.83" stroke="hsl(228.5, 77.2%, 51.5%)" stroke-width="1.5"></path><path d="M666.55 212.83L796.33 240.06" stroke="hsl(228.5, 77.2%, 51.5%)" stroke-width="1.5"></path><path d="M705.36 392.02L705.36 392.02" stroke="hsl(228.5, 77.2%, 51.5%)" stroke-width="1.5"></path><path d="M705.36 392.02L832.02 399.98" stroke="hsl(228.5, 77.2%, 51.5%)" stroke-width="1.5"></path><path d="M796.33 240.06L796.33 240.06" stroke="hsl(228.5, 77.2%, 51.5%)" stroke-width="1.5"></path><path d="M796.33 240.06L832.02 399.98" stroke="hsl(228.5, 77.2%, 51.5%)" stroke-width="1.5"></path><path d="M796.33 240.06L705.36 392.02" stroke="hsl(228.5, 77.2%, 51.5%)" stroke-width="1.5"></path><path d="M796.33 240.06L976.09 346.86" stroke="hsl(228.5, 77.2%, 51.5%)" stroke-width="1.5"></path><path d="M832.02 399.98L832.02 399.98" stroke="hsl(228.5, 77.2%, 51.5%)" stroke-width="1.5"></path><path d="M832.02 399.98L976.09 346.86" stroke="hsl(228.5, 77.2%, 51.5%)" stroke-width="1.5"></path><path d="M976.09 346.86L976.09 346.86" stroke="hsl(228.5, 77.2%, 51.5%)" stroke-width="1.5"></path><path d="M976.09 346.86L1129.59 402.59" stroke="hsl(228.5, 77.2%, 51.5%)" stroke-width="1.5"></path><path d="M976.09 346.86L1135.05 239.46" stroke="hsl(228.5, 77.2%, 51.5%)" stroke-width="1.5"></path><path d="M1135.05 239.46L1135.05 239.46" stroke="hsl(228.5, 77.2%, 51.5%)" stroke-width="1.5"></path><path d="M1135.05 239.46L1256.76 206.15" stroke="hsl(228.5, 77.2%, 51.5%)" stroke-width="1.5"></path><path d="M1129.59 402.59L1129.59 402.59" stroke="hsl(228.5, 77.2%, 51.5%)" stroke-width="1.5"></path><path d="M1129.59 402.59L1257.16 339.97" stroke="hsl(228.5, 77.2%, 51.5%)" stroke-width="1.5"></path><path d="M1129.59 402.59L1135.05 239.46" stroke="hsl(228.5, 77.2%, 51.5%)" stroke-width="1.5"></path><path d="M1129.59 402.59L1256.76 206.15" stroke="hsl(228.5, 77.2%, 51.5%)" stroke-width="1.5"></path><path d="M1308.91 99.26L1308.91 99.26" stroke="hsl(228.5, 77.2%, 51.5%)" stroke-width="1.5"></path><path d="M1308.91 99.26L1256.76 206.15" stroke="hsl(228.5, 77.2%, 51.5%)" stroke-width="1.5"></path><path d="M1256.76 206.15L1256.76 206.15" stroke="hsl(228.5, 77.2%, 51.5%)" stroke-width="1.5"></path><path d="M1256.76 206.15L1257.16 339.97" stroke="hsl(228.5, 77.2%, 51.5%)" stroke-width="1.5"></path><path d="M1257.16 339.97L1257.16 339.97" stroke="hsl(228.5, 77.2%, 51.5%)" stroke-width="1.5"></path><path d="M1257.16 339.97L1135.05 239.46" stroke="hsl(228.5, 77.2%, 51.5%)" stroke-width="1.5"></path><path d="M1577.06 -43.06L1577.06 -43.06" stroke="hsl(228.5, 77.2%, 51.5%)" stroke-width="1.5"></path><path d="M1577.06 -43.06L1701.85 -103.81" stroke="hsl(228.5, 77.2%, 51.5%)" stroke-width="1.5"></path><path d="M1577.06 -43.06L1581.31 97.02" stroke="hsl(228.5, 77.2%, 51.5%)" stroke-width="1.5"></path><path d="M1581.31 97.02L1581.31 97.02" stroke="hsl(228.5, 77.2%, 51.5%)" stroke-width="1.5"></path><path d="M1581.31 97.02L1594.68 230.21" stroke="hsl(228.5, 77.2%, 51.5%)" stroke-width="1.5"></path><path d="M1581.31 97.02L1705.69 233.63" stroke="hsl(228.5, 77.2%, 51.5%)" stroke-width="1.5"></path><path d="M1581.31 97.02L1701.85 -103.81" stroke="hsl(228.5, 77.2%, 51.5%)" stroke-width="1.5"></path><path d="M1594.68 230.21L1594.68 230.21" stroke="hsl(228.5, 77.2%, 51.5%)" stroke-width="1.5"></path><path d="M1594.68 230.21L1705.69 233.63" stroke="hsl(228.5, 77.2%, 51.5%)" stroke-width="1.5"></path><path d="M1594.68 230.21L1714.12 346.17" stroke="hsl(228.5, 77.2%, 51.5%)" stroke-width="1.5"></path><path d="M1594.68 230.21L1558.59 394.01" stroke="hsl(228.5, 77.2%, 51.5%)" stroke-width="1.5"></path><path d="M1558.59 394.01L1558.59 394.01" stroke="hsl(228.5, 77.2%, 51.5%)" stroke-width="1.5"></path><path d="M1558.59 394.01L1714.12 346.17" stroke="hsl(228.5, 77.2%, 51.5%)" stroke-width="1.5"></path><path d="M1701.85 -103.81L1701.85 -103.81" stroke="hsl(228.5, 77.2%, 51.5%)" stroke-width="1.5"></path><path d="M1701.85 -103.81L1879.43 -44.44" stroke="hsl(228.5, 77.2%, 51.5%)" stroke-width="1.5"></path><path d="M1701.85 -103.81L1881.34 91.44" stroke="hsl(228.5, 77.2%, 51.5%)" stroke-width="1.5"></path><path d="M1701.85 -103.81L2010.67 -99.28" stroke="hsl(228.5, 77.2%, 51.5%)" stroke-width="1.5"></path><path d="M1701.85 -103.81L1432.22 79.78" stroke="hsl(228.5, 77.2%, 51.5%)" stroke-width="1.5"></path><path d="M1705.69 233.63L1705.69 233.63" stroke="hsl(228.5, 77.2%, 51.5%)" stroke-width="1.5"></path><path d="M1705.69 233.63L1714.12 346.17" stroke="hsl(228.5, 77.2%, 51.5%)" stroke-width="1.5"></path><path d="M1714.12 346.17L1714.12 346.17" stroke="hsl(228.5, 77.2%, 51.5%)" stroke-width="1.5"></path><path d="M1714.12 346.17L1864.68 353.4" stroke="hsl(228.5, 77.2%, 51.5%)" stroke-width="1.5"></path><path d="M1879.43 -44.44L1879.43 -44.44" stroke="hsl(228.5, 77.2%, 51.5%)" stroke-width="1.5"></path><path d="M1879.43 -44.44L2010.67 -99.28" stroke="hsl(228.5, 77.2%, 51.5%)" stroke-width="1.5"></path><path d="M1892.21 248.75L1892.21 248.75" stroke="hsl(228.5, 77.2%, 51.5%)" stroke-width="1.5"></path><path d="M1892.21 248.75L1864.68 353.4" stroke="hsl(228.5, 77.2%, 51.5%)" stroke-width="1.5"></path><path d="M1892.21 248.75L2006.63 217.44" stroke="hsl(228.5, 77.2%, 51.5%)" stroke-width="1.5"></path><path d="M1892.21 248.75L1705.69 233.63" stroke="hsl(228.5, 77.2%, 51.5%)" stroke-width="1.5"></path><path d="M1892.21 248.75L1714.12 346.17" stroke="hsl(228.5, 77.2%, 51.5%)" stroke-width="1.5"></path><path d="M1892.21 248.75L2043.3 59.62" stroke="hsl(228.5, 77.2%, 51.5%)" stroke-width="1.5"></path><path d="M1864.68 353.4L1864.68 353.4" stroke="hsl(228.5, 77.2%, 51.5%)" stroke-width="1.5"></path><path d="M2010.67 -99.28L2010.67 -99.28" stroke="hsl(228.5, 77.2%, 51.5%)" stroke-width="1.5"></path><path d="M2010.67 -99.28L2043.3 59.62" stroke="hsl(228.5, 77.2%, 51.5%)" stroke-width="1.5"></path><path d="M2043.3 59.62L2043.3 59.62" stroke="hsl(228.5, 77.2%, 51.5%)" stroke-width="1.5"></path><path d="M2043.3 59.62L2006.63 217.44" stroke="hsl(228.5, 77.2%, 51.5%)" stroke-width="1.5"></path><path d="M2043.3 59.62L1879.43 -44.44" stroke="hsl(228.5, 77.2%, 51.5%)" stroke-width="1.5"></path><path d="M2006.63 217.44L2006.63 217.44" stroke="hsl(228.5, 77.2%, 51.5%)" stroke-width="1.5"></path><path d="M2006.63 217.44L1864.68 353.4" stroke="hsl(228.5, 77.2%, 51.5%)" stroke-width="1.5"></path><path d="M2006.63 217.44L1879.43 -44.44" stroke="hsl(228.5, 77.2%, 51.5%)" stroke-width="1.5"></path><circle r="25" cx="344.14" cy="235.99" fill="url(#SvgjsRadialGradient1081)"></circle><circle r="25" cx="540.15" cy="399.86" fill="url(#SvgjsRadialGradient1081)"></circle><circle r="25" cx="960.62" cy="240.19" fill="url(#SvgjsRadialGradient1081)"></circle><circle r="25" cx="1432.22" cy="79.78" fill="url(#SvgjsRadialGradient1081)"></circle><circle r="25" cx="1424.18" cy="348.1" fill="url(#SvgjsRadialGradient1081)"></circle><circle r="25" cx="1881.34" cy="91.44" fill="url(#SvgjsRadialGradient1081)"></circle><circle r="5" cx="-81.09" cy="228.33" fill="#8b9ad9"></circle><circle r="5" cx="-79.05" cy="352.36" fill="#8b9ad9"></circle><circle r="5" cx="80.97" cy="249.94" fill="#8b9ad9"></circle><circle r="5" cx="77.16" cy="357.16" fill="#8b9ad9"></circle><circle r="5" cx="215.39" cy="210.87" fill="#8b9ad9"></circle><circle r="5" cx="249.71" cy="379.01" fill="#8b9ad9"></circle><circle r="5" cx="364.7" cy="341.08" fill="#8b9ad9"></circle><circle r="5" cx="527.43" cy="240.56" fill="#8b9ad9"></circle><circle r="5" cx="666.55" cy="212.83" fill="#8b9ad9"></circle><circle r="5" cx="705.36" cy="392.02" fill="#8b9ad9"></circle><circle r="5" cx="796.33" cy="240.06" fill="#8b9ad9"></circle><circle r="5" cx="832.02" cy="399.98" fill="#8b9ad9"></circle><circle r="5" cx="976.09" cy="346.86" fill="#8b9ad9"></circle><circle r="5" cx="1135.05" cy="239.46" fill="#8b9ad9"></circle><circle r="5" cx="1129.59" cy="402.59" fill="#8b9ad9"></circle><circle r="5" cx="1308.91" cy="99.26" fill="#8b9ad9"></circle><circle r="5" cx="1256.76" cy="206.15" fill="#8b9ad9"></circle><circle r="5" cx="1257.16" cy="339.97" fill="#8b9ad9"></circle><circle r="5" cx="1577.06" cy="-43.06" fill="#8b9ad9"></circle><circle r="5" cx="1581.31" cy="97.02" fill="#8b9ad9"></circle><circle r="5" cx="1594.68" cy="230.21" fill="#8b9ad9"></circle><circle r="5" cx="1558.59" cy="394.01" fill="#8b9ad9"></circle><circle r="5" cx="1701.85" cy="-103.81" fill="#8b9ad9"></circle><circle r="5" cx="1705.69" cy="233.63" fill="#8b9ad9"></circle><circle r="5" cx="1714.12" cy="346.17" fill="#8b9ad9"></circle><circle r="5" cx="1879.43" cy="-44.44" fill="#8b9ad9"></circle><circle r="5" cx="1892.21" cy="248.75" fill="#8b9ad9"></circle><circle r="5" cx="1864.68" cy="353.4" fill="#8b9ad9"></circle><circle r="5" cx="2010.67" cy="-99.28" fill="#8b9ad9"></circle><circle r="5" cx="2043.3" cy="59.62" fill="#8b9ad9"></circle><circle r="5" cx="2006.63" cy="217.44" fill="#8b9ad9"></circle></g><defs><mask id="SvgjsMask1080"><rect width="1920" height="200" fill="#ffffff"></rect></mask><radialGradient id="SvgjsRadialGradient1081"><stop stop-color="#ffffff" offset="0.1"></stop><stop stop-color="#1735b3" offset="0.2"></stop><stop stop-color="rgba(23, 53, 179, 0)" offset="1"></stop></radialGradient></defs></svg>