<svg xmlns="http://www.w3.org/2000/svg" version="1.1" xmlns:xlink="http://www.w3.org/1999/xlink" xmlns:svgjs="http://svgjs.com/svgjs" width="1520" height="555" preserveAspectRatio="none" viewBox="0 0 1520 555"><g mask="url(&quot;#SvgjsMask1036&quot;)" fill="none"><rect width="1520" height="555" x="0" y="0" fill="#0e2a47"></rect><path d="M19 555L574 0L758.5 0L203.5 555z" fill="url(#SvgjsLinearGradient1037)"></path><path d="M358.40000000000003 555L913.4000000000001 0L991.4000000000001 0L436.40000000000003 555z" fill="url(#SvgjsLinearGradient1037)"></path><path d="M671.8000000000001 555L1226.8000000000002 0L1349.8000000000002 0L794.8000000000001 555z" fill="url(#SvgjsLinearGradient1037)"></path><path d="M1508 555L953 0L662 0L1217 555z" fill="url(#SvgjsLinearGradient1038)"></path><path d="M1133.6 555L578.5999999999999 0L427.0999999999999 0L982.0999999999999 555z" fill="url(#SvgjsLinearGradient1038)"></path><path d="M825.1999999999999 555L270.19999999999993 0L42.19999999999993 0L597.1999999999999 555z" fill="url(#SvgjsLinearGradient1038)"></path><path d="M1057.6430949742498 555L1520 92.64309497424995L1520 555z" fill="url(#SvgjsLinearGradient1037)"></path><path d="M0 555L462.35690502575005 555L 0 92.64309497424995z" fill="url(#SvgjsLinearGradient1038)"></path></g><defs><mask id="SvgjsMask1036"><rect width="1520" height="555" fill="#ffffff"></rect></mask><linearGradient x1="0%" y1="100%" x2="100%" y2="0%" id="SvgjsLinearGradient1037"><stop stop-color="rgba(0, 76, 234, 0.79)" offset="0"></stop><stop stop-opacity="0" stop-color="rgba(0, 76, 234, 0.79)" offset="0.66"></stop></linearGradient><linearGradient x1="100%" y1="100%" x2="0%" y2="0%" id="SvgjsLinearGradient1038"><stop stop-color="rgba(0, 76, 234, 0.79)" offset="0"></stop><stop stop-opacity="0" stop-color="rgba(0, 76, 234, 0.79)" offset="0.66"></stop></linearGradient></defs></svg>