<svg id="visual" viewBox="0 0 900 600" width="900" height="600" xmlns="http://www.w3.org/2000/svg" xmlns:xlink="http://www.w3.org/1999/xlink" version="1.1"><path d="M266 600L288.3 575C310.7 550 355.3 500 373 450C390.7 400 381.3 350 370.3 300C359.3 250 346.7 200 326.3 150C306 100 278 50 264 25L250 0L900 0L900 25C900 50 900 100 900 150C900 200 900 250 900 300C900 350 900 400 900 450C900 500 900 550 900 575L900 600Z" fill="#48c6df"></path><path d="M450 600L451.8 575C453.7 550 457.3 500 453.2 450C449 400 437 350 422.2 300C407.3 250 389.7 200 384.7 150C379.7 100 387.3 50 391.2 25L395 0L900 0L900 25C900 50 900 100 900 150C900 200 900 250 900 300C900 350 900 400 900 450C900 500 900 550 900 575L900 600Z" fill="#34b6da"></path><path d="M559 600L567.8 575C576.7 550 594.3 500 582.5 450C570.7 400 529.3 350 507.3 300C485.3 250 482.7 200 494.5 150C506.3 100 532.7 50 545.8 25L559 0L900 0L900 25C900 50 900 100 900 150C900 200 900 250 900 300C900 350 900 400 900 450C900 500 900 550 900 575L900 600Z" fill="#27a5d4"></path><path d="M636 600L653.7 575C671.3 550 706.7 500 720.7 450C734.7 400 727.3 350 714.2 300C701 250 682 200 661.7 150C641.3 100 619.7 50 608.8 25L598 0L900 0L900 25C900 50 900 100 900 150C900 200 900 250 900 300C900 350 900 400 900 450C900 500 900 550 900 575L900 600Z" fill="#2794cc"></path><path d="M793 600L797.7 575C802.3 550 811.7 500 808.7 450C805.7 400 790.3 350 776.8 300C763.3 250 751.7 200 746.8 150C742 100 744 50 745 25L746 0L900 0L900 25C900 50 900 100 900 150C900 200 900 250 900 300C900 350 900 400 900 450C900 500 900 550 900 575L900 600Z" fill="#3282c1"></path></svg>