<svg id="visual" viewBox="0 0 1920 1080" width="1920" height="1080" xmlns="http://www.w3.org/2000/svg" xmlns:xlink="http://www.w3.org/1999/xlink" version="1.1"><path d="M0 87L64 78C128 69 256 51 384 36.5C512 22 640 11 768 9.3C896 7.7 1024 15.3 1152 29.8C1280 44.3 1408 65.7 1536 67.3C1664 69 1792 51 1856 42L1920 33L1920 0L1856 0C1792 0 1664 0 1536 0C1408 0 1280 0 1152 0C1024 0 896 0 768 0C640 0 512 0 384 0C256 0 128 0 64 0L0 0Z" fill="#6198ff"></path><path d="M0 98L64 99.8C128 101.7 256 105.3 384 101.8C512 98.3 640 87.7 768 75C896 62.3 1024 47.7 1152 51.2C1280 54.7 1408 76.3 1536 76.3C1664 76.3 1792 54.7 1856 43.8L1920 33L1920 31L1856 40C1792 49 1664 67 1536 65.3C1408 63.7 1280 42.3 1152 28.2C1024 14 896 7 768 8.7C640 10.3 512 20.7 384 34.8C256 49 128 67 64 76L0 85Z" fill="#548fff"></path><path d="M0 174L64 170.3C128 166.7 256 159.3 384 157.5C512 155.7 640 159.3 768 164.8C896 170.3 1024 177.7 1152 181.3C1280 185 1408 185 1536 181.3C1664 177.7 1792 170.3 1856 166.7L1920 163L1920 31L1856 41.8C1792 52.7 1664 74.3 1536 74.3C1408 74.3 1280 52.7 1152 49.2C1024 45.7 896 60.3 768 73C640 85.7 512 96.3 384 99.8C256 103.3 128 99.7 64 97.8L0 96Z" fill="#4686ff"></path><path d="M0 185L64 190.3C128 195.7 256 206.3 384 215.3C512 224.3 640 231.7 768 233.5C896 235.3 1024 231.7 1152 226.2C1280 220.7 1408 213.3 1536 216.8C1664 220.3 1792 234.7 1856 241.8L1920 249L1920 161L1856 164.7C1792 168.3 1664 175.7 1536 179.3C1408 183 1280 183 1152 179.3C1024 175.7 896 168.3 768 162.8C640 157.3 512 153.7 384 155.5C256 157.3 128 164.7 64 168.3L0 172Z" fill="#387dff"></path><path d="M0 444L64 433.2C128 422.3 256 400.7 384 384.5C512 368.3 640 357.7 768 345C896 332.3 1024 317.7 1152 364.3C1280 411 1408 519 1536 533.5C1664 548 1792 469 1856 429.5L1920 390L1920 247L1856 239.8C1792 232.7 1664 218.3 1536 214.8C1408 211.3 1280 218.7 1152 224.2C1024 229.7 896 233.3 768 231.5C640 229.7 512 222.3 384 213.3C256 204.3 128 193.7 64 188.3L0 183Z" fill="#2874ff"></path><path d="M0 476L64 481.5C128 487 256 498 384 487.2C512 476.3 640 443.7 768 443.7C896 443.7 1024 476.3 1152 521.3C1280 566.3 1408 623.7 1536 611C1664 598.3 1792 515.7 1856 474.3L1920 433L1920 388L1856 427.5C1792 467 1664 546 1536 531.5C1408 517 1280 409 1152 362.3C1024 315.7 896 330.3 768 343C640 355.7 512 366.3 384 382.5C256 398.7 128 420.3 64 431.2L0 442Z" fill="#126bff"></path><path d="M0 595L64 591.3C128 587.7 256 580.3 384 562.3C512 544.3 640 515.7 768 514C896 512.3 1024 537.7 1152 571.8C1280 606 1408 649 1536 647.2C1664 645.3 1792 598.7 1856 575.3L1920 552L1920 431L1856 472.3C1792 513.7 1664 596.3 1536 609C1408 621.7 1280 564.3 1152 519.3C1024 474.3 896 441.7 768 441.7C640 441.7 512 474.3 384 485.2C256 496 128 485 64 479.5L0 474Z" fill="#0064f9"></path><path d="M0 995L64 973.3C128 951.7 256 908.3 384 870.5C512 832.7 640 800.3 768 784.2C896 768 1024 768 1152 789.5C1280 811 1408 854 1536 863C1664 872 1792 847 1856 834.5L1920 822L1920 550L1856 573.3C1792 596.7 1664 643.3 1536 645.2C1408 647 1280 604 1152 569.8C1024 535.7 896 510.3 768 512C640 513.7 512 542.3 384 560.3C256 578.3 128 585.7 64 589.3L0 593Z" fill="#005fec"></path><path d="M0 1027L64 1003.7C128 980.3 256 933.7 384 912C512 890.3 640 893.7 768 895.3C896 897 1024 897 1152 900.7C1280 904.3 1408 911.7 1536 906.3C1664 901 1792 883 1856 874L1920 865L1920 820L1856 832.5C1792 845 1664 870 1536 861C1408 852 1280 809 1152 787.5C1024 766 896 766 768 782.2C640 798.3 512 830.7 384 868.5C256 906.3 128 949.7 64 971.3L0 993Z" fill="#005ae0"></path><path d="M0 1038L64 1018.2C128 998.3 256 958.7 384 946C512 933.3 640 947.7 768 944C896 940.3 1024 918.7 1152 911.5C1280 904.3 1408 911.7 1536 913.5C1664 915.3 1792 911.7 1856 909.8L1920 908L1920 863L1856 872C1792 881 1664 899 1536 904.3C1408 909.7 1280 902.3 1152 898.7C1024 895 896 895 768 893.3C640 891.7 512 888.3 384 910C256 931.7 128 978.3 64 1001.7L0 1025Z" fill="#0055d3"></path><path d="M0 1070L64 1061C128 1052 256 1034 384 1034C512 1034 640 1052 768 1046.7C896 1041.3 1024 1012.7 1152 998.3C1280 984 1408 984 1536 991.2C1664 998.3 1792 1012.7 1856 1019.8L1920 1027L1920 906L1856 907.8C1792 909.7 1664 913.3 1536 911.5C1408 909.7 1280 902.3 1152 909.5C1024 916.7 896 938.3 768 942C640 945.7 512 931.3 384 944C256 956.7 128 996.3 64 1016.2L0 1036Z" fill="#0051c7"></path><path d="M0 1081L64 1081C128 1081 256 1081 384 1081C512 1081 640 1081 768 1081C896 1081 1024 1081 1152 1081C1280 1081 1408 1081 1536 1081C1664 1081 1792 1081 1856 1081L1920 1081L1920 1025L1856 1017.8C1792 1010.7 1664 996.3 1536 989.2C1408 982 1280 982 1152 996.3C1024 1010.7 896 1039.3 768 1044.7C640 1050 512 1032 384 1032C256 1032 128 1050 64 1059L0 1068Z" fill="#004cbb"></path></svg>